<svg width="16" height="16" viewBox="-1 47 16 16" fill="none" xmlns="http://www.w3.org/2000/svg">
<path d="M10.8219 61.1199C10.9012 61.6429 10.2214 61.9164 9.91633 61.4843L7.50548 58.066C7.39604 57.9109 7.20809 57.8308 7.02036 57.8593L2.88437 58.4883C2.36141 58.5675 2.08787 57.8877 2.51998 57.5827L5.93883 55.1716C6.09401 55.0622 6.1741 54.8742 6.14556 54.6865L5.51663 50.5505C5.43736 50.0275 6.11714 49.754 6.42219 50.1861L8.83328 53.605C8.94272 53.7601 9.13068 53.8402 9.31841 53.8117L13.4538 53.183C13.9768 53.1037 14.2503 53.7835 13.8182 54.0886L10.3999 56.4994C10.2448 56.6088 10.1647 56.7968 10.1932 56.9845L10.8219 61.1199Z" fill="white" fill-opacity="0.99"/>
</svg>
