<svg width="46" height="53" viewBox="12 2 46 53" fill="none" xmlns="http://www.w3.org/2000/svg">
<path d="M50.6526 41.8471C56.5148 36.4484 54.6549 24.8922 46.4985 16.0359C38.3422 7.17952 26.9779 4.37659 21.1158 9.77538L15.0948 15.3206C9.23262 20.7194 11.0925 32.2755 19.2488 41.1319C27.4052 49.9883 38.7695 52.7912 44.6316 47.3924L50.6526 41.8471Z" fill="#109888"/>
<path d="M22.9628 33.2673C17.2819 25.6619 16.9461 17.8738 18.2076 14.6618C18.3865 14.2061 18.3673 13.9996 17.9509 14.3831L16.1101 16.0784C11.1244 20.6701 12.0624 29.9851 17.9377 37.8952C20.9953 42.0118 25.7278 36.969 22.9628 33.2673Z" fill="#26C2A3"/>
<ellipse cx="35.8847" cy="25.8117" rx="20.5565" ry="13.6066" transform="rotate(47.3561 35.8847 25.8117)" fill="#26C2A3"/>
<path d="M38.8543 37.1877L42.794 39.4563C43.1555 39.6644 44.9915 38.2765 44.9973 37.9611L45.0222 34.3709C45.0268 34.1186 44.888 33.7199 44.382 33.4286L40.0621 31.0013C39.9084 30.9681 38.2113 32.3878 38.2027 32.8609L38.1424 36.1722C38.1378 36.4245 38.529 37.0004 38.8543 37.1877ZM29.6738 31.9013L33.6135 34.1699C33.9388 34.3572 35.9322 32.8395 35.9368 32.5872L35.6409 29.0202C35.6495 28.5472 35.2536 28.2236 34.9283 28.0363L30.9889 25.7529C30.7368 25.7089 29.099 27.3638 29.0944 27.6161L29.0341 30.9274C29.0283 31.2428 29.3123 31.6931 29.6738 31.9013ZM39.1609 30.3852L42.7392 32.4456C43.1367 32.6746 45.0267 31.3424 45.0336 30.964L43.9409 20.6136C43.9461 20.3297 43.8066 19.9626 43.3006 19.6713L40.2052 15.604C39.8076 15.3751 38.381 17.0615 38.3747 17.4084L38.5568 29.4637C38.5516 29.7475 38.8356 30.1979 39.1609 30.3852ZM30.0165 25.1195L33.5947 27.18C33.92 27.3673 35.8514 25.867 35.8566 25.5832L34.8326 15.3688C34.8389 15.0218 34.5538 14.6346 34.1562 14.4056L31.1109 10.2972C30.5616 10.5875 29.2716 11.8798 29.2664 12.1636L29.3401 24.1564C29.3332 24.5349 29.6189 24.8906 30.0165 25.1195Z" fill="#109888"/>
<path d="M40.5352 35.6392L44.4749 37.9078C44.8363 38.116 45.1306 37.9986 45.1364 37.6833L45.1967 34.3719C45.2013 34.1196 45.0625 33.721 44.5564 33.4296L40.6168 31.161C40.2915 30.9737 39.8921 30.8394 39.8835 31.3124L39.8232 34.6238C39.8186 34.8761 40.2099 35.4519 40.5352 35.6392ZM31.3546 30.3528L35.2943 32.6214C35.6196 32.8087 36.0235 32.6907 36.0281 32.4385L36.0884 29.1271C36.097 28.654 35.7012 28.3305 35.3759 28.1432L31.4362 25.8746C30.9302 25.5832 30.7798 25.8153 30.7752 26.0676L30.7149 29.379C30.7092 29.6943 30.9931 31.1447 31.3546 30.3528ZM40.8417 28.8367L44.42 30.8972C44.8176 31.1261 45.1102 31.1034 45.1171 30.725L45.6217 19.0651C45.6269 18.7813 45.4875 18.4142 44.9814 18.1228L40.7526 15.6877C40.355 15.4588 40.0618 15.513 40.0555 15.8599L40.2376 27.9152C40.2324 28.1991 40.5164 28.6494 40.8417 28.8367ZM31.6973 23.5711L35.2755 25.6316C35.6008 25.8189 35.8952 25.7015 35.9003 25.4177L36.5134 13.8203C36.5197 13.4734 36.2346 13.0861 35.837 12.8572L31.6082 10.4221C31.1021 10.1307 30.9524 10.3313 30.9472 10.6151L31.0209 22.608C31.014 22.9864 31.2997 23.3422 31.6973 23.5711Z" fill="white"/>
</svg>
