<svg width="30" height="30" viewBox="44 0 30 30" fill="none" xmlns="http://www.w3.org/2000/svg">
<path d="M69.0232 18.6773C69.7493 19.2708 69.1806 20.4389 68.2656 20.2334L61.0303 18.605C60.7018 18.5311 60.3594 18.6493 60.1465 18.9101L55.4552 24.6555C54.8617 25.3816 53.6937 24.8129 53.8992 23.8979L55.5281 16.6616C55.602 16.3331 55.4838 15.9907 55.223 15.7778L49.4776 11.0865C48.7515 10.4931 49.3201 9.32496 50.2352 9.53046L57.4715 11.1594C57.7999 11.2333 58.1424 11.1151 58.3553 10.8543L63.046 5.10993C63.6395 4.3838 64.8076 4.95249 64.6021 5.8675L62.9737 13.1028C62.8998 13.4313 63.018 13.7737 63.2787 13.9866L69.0232 18.6773Z" fill="white" fill-opacity="0.99"/>
</svg>
