<svg width="291" height="146" viewBox="0 0 291 146" fill="none" xmlns="http://www.w3.org/2000/svg">
<path d="M7.01597 95.8808C5.90862 92.8202 6.60644 89.9362 8.53008 87.787C10.2341 85.8864 11.874 84.2586 11.874 84.2586L46.7661 81.2341C51.0767 80.8127 55.8652 83.7692 57.6959 87.8784L70.2623 118.77C70.2623 118.77 69.5749 119.516 67.3323 121.916C66.7134 122.575 65.9781 123.122 65.1103 123.517L36.2187 136.745C29.6286 139.768 21.8981 137.022 19.5451 130.506L7.01597 95.8808Z" fill="#5E53D9"/>
<path d="M9.76879 92.9535C7.69255 87.1989 12.0105 82.0192 18.8649 81.3405L49.5046 78.323C53.8152 77.9016 58.6047 80.8571 60.4353 84.9663L71.2674 109.196C73.2655 113.685 71.8652 118.768 67.8632 120.591L38.9715 133.818C32.3815 136.84 24.6509 134.095 22.2979 127.579L9.76879 92.9535Z" fill="#7A66F4"/>
<path d="M9.76894 92.9535C7.69271 87.1989 22.3755 122.651 24.3322 127.106C26.2889 131.562 31.5113 133.067 37.9248 130.875C44.3383 128.684 62.3864 120.746 67.7922 118.076C73.198 115.405 71.2675 109.196 71.2675 109.196C73.2656 113.685 71.8654 118.768 67.8634 120.591L38.9717 133.818C32.3816 136.84 24.651 134.095 22.2981 127.579L9.76894 92.9535Z" fill="#9881F2"/>
<path d="M63.4149 113.296C62.1143 113.888 61.1166 114.29 60.6422 112.233L59.5799 107.587L56.3085 100.018L57.3217 96.4616L61.8136 106.753L64.4638 110.594C65.6063 112.255 64.6108 112.753 63.4238 113.294L63.4126 113.298L63.4149 113.296ZM36.0604 114.339L32.9693 106.352C32.0518 103.984 36.2096 101.388 42.9575 99.7333C49.0417 98.2431 53.008 98.5723 53.8342 100.507L56.6158 107.013C52.6584 113.414 52.115 114.895 49.6341 115.934C47.0285 117.026 45.4517 116.343 36.0626 114.337L36.0604 114.339ZM29.4595 107.576L24.2884 105.614C20.3221 104.01 19.9635 102.587 22.8854 100.062L35.007 89.3199C37.1049 87.5139 38.8241 87.2959 41.8907 88.359L55.4689 93.2344C57.923 94.084 58.4486 95.0871 57.54 97.1244L56.3196 100C54.7874 96.4549 49.5918 95.1827 41.893 96.8508C33.0161 98.7725 27.7158 102.985 29.4617 107.576L29.4595 107.576Z" fill="white"/>
<path d="M283.945 95.8808C285.052 92.8202 284.355 89.9362 282.431 87.787C280.727 85.8864 279.087 84.2586 279.087 84.2586L244.195 81.2341C239.884 80.8127 235.096 83.7692 233.265 87.8784L220.699 118.77C220.699 118.77 221.386 119.516 223.629 121.916C224.248 122.575 224.983 123.122 225.851 123.517L254.742 136.745C261.332 139.768 269.063 137.022 271.416 130.506L283.945 95.8808Z" fill="#DC501D"/>
<path d="M281.192 92.9535C283.268 87.1989 278.95 82.0192 272.096 81.3405L241.456 78.323C237.146 77.9016 232.356 80.8571 230.526 84.9663L219.693 109.196C217.695 113.685 219.096 118.768 223.098 120.591L251.989 133.818C258.579 136.84 266.31 134.095 268.663 127.579L281.192 92.9535Z" fill="#FA742C"/>
<path d="M281.192 92.9535C283.268 87.1989 268.585 122.651 266.629 127.106C264.672 131.562 259.45 133.067 253.036 130.875C246.623 128.684 228.574 120.746 223.169 118.076C217.763 115.405 219.693 109.196 219.693 109.196C217.695 113.685 219.095 118.768 223.097 120.591L251.989 133.818C258.579 136.84 266.31 134.095 268.663 127.579L281.192 92.9535Z" fill="#FFA459"/>
<g clip-path="url(#clip0_12139_142318)">
<path d="M236.906 115.153L232.109 100.708C231.37 98.4792 231.933 97.296 234.376 95.8081L237.95 93.6408C238.653 93.2278 239.3 93.0287 239.651 93.8107C240.024 94.8416 239.26 96.5608 239.817 97.8817C240.594 99.5248 242.864 100.034 244.873 98.7545C246.839 97.6064 247.732 95.4098 246.897 93.8693C246.222 92.4986 244.22 92.4107 243.715 91.5584C243.286 90.6915 243.859 90.2082 244.602 89.7338L248.484 87.4493C251.127 85.8941 252.412 86.0259 253.712 88.0204L255.832 91.3065C256.263 91.986 256.777 92.2057 257.622 91.8015C258.842 91.1425 259.174 89.4614 261.183 88.284C263.337 87.2062 265.773 87.5459 267.018 89.0865C268.257 90.6798 267.597 92.9408 265.453 94.2998C263.321 95.4303 261.282 94.8533 260.083 95.5914C259.273 96.0776 259.18 96.6868 259.68 97.4073L262.267 101.566C264.03 104.425 263.531 105.998 260.188 107.728L242.297 117.221C239.25 118.796 237.904 118.278 236.881 115.197L236.903 115.15L236.906 115.153Z" fill="white"/>
</g>
<path d="M269.399 39.552C273.818 33.2679 269.703 22.7622 260.209 16.0869C250.716 9.41148 239.438 9.09422 235.019 15.3782L230.481 21.8327C226.062 28.1168 230.177 38.6225 239.67 45.2979C249.164 51.9732 260.442 52.2905 264.861 46.0065L269.399 39.552Z" fill="#5D9948"/>
<path d="M241.561 37.13C234.655 31.127 232.746 23.8592 233.278 20.5757C233.353 20.1098 233.293 19.9193 232.979 20.3656L231.592 22.3389C227.834 27.6835 230.622 36.2665 237.773 42.5168C241.495 45.7696 244.922 40.0518 241.561 37.13Z" fill="#81B64C"/>
<ellipse cx="252.209" cy="27.4656" rx="19.815" ry="13.1158" transform="rotate(35.1123 252.209 27.4656)" fill="#81B64C"/>
<path d="M264.188 29.9333C265.364 31.0359 265.552 31.043 264.676 32.2896C263.571 33.8607 262.584 33.6677 261.499 33.5506L257.688 33.1403L257.052 35.3193C256.921 35.777 256.76 36.1177 256.574 36.3424C255.569 37.913 253.105 39.0411 252.123 37.2143L249.369 32.0364L243.565 31.1971C241.514 30.8908 241.74 28.1345 242.878 26.6575C243.026 26.4067 243.292 26.1396 243.679 25.862L245.514 24.526L243.84 21.1345C243.363 20.1526 242.927 19.3453 244.032 17.7741C245.025 16.3612 244.948 16.6805 246.383 17.4143C252.79 20.8335 258.794 25.0533 264.188 29.9333Z" fill="#5D9948"/>
<path d="M245.157 28.7061C242.604 28.3178 242.058 27.3136 243.69 26.1006L247.646 23.2456L245.276 18.559C244.121 16.301 244.878 15.8195 247.257 17.3254L252.468 20.6647L256.78 18.5515C258.683 17.627 259.735 18.3671 259.481 20.451L258.951 25.2233L263.922 29.0429C266.144 30.7726 265.961 31.6274 263.431 31.3245L258.163 30.6403L256.825 35.3752C256.286 37.3283 255.157 37.1535 253.914 34.9023L251.035 29.632L245.157 28.7061Z" fill="white"/>
<path d="M50.6526 41.8471C56.5148 36.4484 54.6549 24.8922 46.4985 16.0359C38.3422 7.17952 26.9779 4.37659 21.1158 9.77538L15.0948 15.3206C9.23262 20.7194 11.0925 32.2755 19.2488 41.1319C27.4052 49.9883 38.7695 52.7912 44.6316 47.3924L50.6526 41.8471Z" fill="#109888"/>
<path d="M22.9628 33.2673C17.2819 25.6619 16.9461 17.8738 18.2076 14.6618C18.3865 14.2061 18.3673 13.9996 17.9509 14.3831L16.1101 16.0784C11.1244 20.6701 12.0624 29.9851 17.9377 37.8952C20.9953 42.0118 25.7278 36.969 22.9628 33.2673Z" fill="#26C2A3"/>
<ellipse cx="35.8847" cy="25.8117" rx="20.5565" ry="13.6066" transform="rotate(47.3561 35.8847 25.8117)" fill="#26C2A3"/>
<path d="M38.8543 37.1877L42.794 39.4563C43.1555 39.6644 44.9915 38.2765 44.9973 37.9611L45.0222 34.3709C45.0268 34.1186 44.888 33.7199 44.382 33.4286L40.0621 31.0013C39.9084 30.9681 38.2113 32.3878 38.2027 32.8609L38.1424 36.1722C38.1378 36.4245 38.529 37.0004 38.8543 37.1877ZM29.6738 31.9013L33.6135 34.1699C33.9388 34.3572 35.9322 32.8395 35.9368 32.5872L35.6409 29.0202C35.6495 28.5472 35.2536 28.2236 34.9283 28.0363L30.9889 25.7529C30.7368 25.7089 29.099 27.3638 29.0944 27.6161L29.0341 30.9274C29.0283 31.2428 29.3123 31.6931 29.6738 31.9013ZM39.1609 30.3852L42.7392 32.4456C43.1367 32.6746 45.0267 31.3424 45.0336 30.964L43.9409 20.6136C43.9461 20.3297 43.8066 19.9626 43.3006 19.6713L40.2052 15.604C39.8076 15.3751 38.381 17.0615 38.3747 17.4084L38.5568 29.4637C38.5516 29.7475 38.8356 30.1979 39.1609 30.3852ZM30.0165 25.1195L33.5947 27.18C33.92 27.3673 35.8514 25.867 35.8566 25.5832L34.8326 15.3688C34.8389 15.0218 34.5538 14.6346 34.1562 14.4056L31.1109 10.2972C30.5616 10.5875 29.2716 11.8798 29.2664 12.1636L29.3401 24.1564C29.3332 24.5349 29.6189 24.8906 30.0165 25.1195Z" fill="#109888"/>
<path d="M40.5352 35.6392L44.4749 37.9078C44.8363 38.116 45.1306 37.9986 45.1364 37.6833L45.1967 34.3719C45.2013 34.1196 45.0625 33.721 44.5564 33.4296L40.6168 31.161C40.2915 30.9737 39.8921 30.8394 39.8835 31.3124L39.8232 34.6238C39.8186 34.8761 40.2099 35.4519 40.5352 35.6392ZM31.3546 30.3528L35.2943 32.6214C35.6196 32.8087 36.0235 32.6907 36.0281 32.4385L36.0884 29.1271C36.097 28.654 35.7012 28.3305 35.3759 28.1432L31.4362 25.8746C30.9302 25.5832 30.7798 25.8153 30.7752 26.0676L30.7149 29.379C30.7092 29.6943 30.9931 30.1447 31.3546 30.3528ZM40.8417 28.8367L44.42 30.8972C44.8176 31.1261 45.1102 31.1034 45.1171 30.725L45.6217 19.0651C45.6269 18.7813 45.4875 18.4142 44.9814 18.1228L40.7526 15.6877C40.355 15.4588 40.0618 15.513 40.0555 15.8599L40.2376 27.9152C40.2324 28.1991 40.5164 28.6494 40.8417 28.8367ZM31.6973 23.5711L35.2755 25.6316C35.6008 25.8189 35.8952 25.7015 35.9003 25.4177L36.5134 13.8203C36.5197 13.4734 36.2346 13.0861 35.837 12.8572L31.6082 10.4221C31.1021 10.1307 30.9524 10.3313 30.9472 10.6151L31.0209 22.608C31.014 22.9864 31.2997 23.3422 31.6973 23.5711Z" fill="white"/>
<defs>
<clipPath id="clip0_12139_142318">
<rect width="35.8365" height="31.7016" fill="white" transform="translate(231.807 86.3921)"/>
</clipPath>
</defs>
</svg>
