<svg width="75" height="64" viewBox="0 0 75 64" fill="none" xmlns="http://www.w3.org/2000/svg">
<path d="M69.0232 18.6773C69.7493 19.2708 69.1806 20.4389 68.2656 20.2334L61.0303 18.605C60.7018 18.5311 60.3594 18.6493 60.1465 18.9101L55.4552 24.6555C54.8617 25.3816 53.6937 24.8129 53.8992 23.8979L55.5281 16.6616C55.602 16.3331 55.4838 15.9907 55.223 15.7778L49.4776 11.0865C48.7515 10.4931 49.3201 9.32496 50.2352 9.53046L57.4715 11.1594C57.7999 11.2333 58.1424 11.1151 58.3553 10.8543L63.046 5.10993C63.6395 4.3838 64.8076 4.95249 64.6021 5.8675L62.9737 13.1028C62.8998 13.4313 63.018 13.7737 63.2787 13.9866L69.0232 18.6773Z" fill="white" fill-opacity="0.99"/>
<path d="M10.8219 61.1199C10.9012 61.6429 10.2214 61.9164 9.91633 61.4843L7.50548 58.066C7.39604 57.9109 7.20809 57.8308 7.02036 57.8593L2.88437 58.4883C2.36141 58.5675 2.08787 57.8877 2.51998 57.5827L5.93883 55.1716C6.09401 55.0622 6.1741 54.8742 6.14556 54.6865L5.51663 50.5505C5.43736 50.0275 6.11714 49.754 6.42219 50.1861L8.83328 53.605C8.94272 53.7601 9.13068 53.8402 9.31841 53.8117L13.4538 53.183C13.9768 53.1037 14.2503 53.7835 13.8182 54.0886L10.3999 56.4994C10.2448 56.6088 10.1647 56.7968 10.1932 56.9845L10.8219 61.1199Z" fill="white" fill-opacity="0.99"/>
</svg>
