<svg width="48" height="53" viewBox="226 2 48 53" fill="none" xmlns="http://www.w3.org/2000/svg">
<path d="M269.399 39.552C273.818 33.2679 269.703 22.7622 260.209 16.0869C250.716 9.41148 239.438 9.09422 235.019 15.3782L230.481 21.8327C226.062 28.1168 230.177 38.6225 239.67 45.2979C249.164 51.9732 260.442 52.2905 264.861 46.0065L269.399 39.552Z" fill="#5D9948"/>
<path d="M241.561 37.13C234.655 31.127 232.746 23.8592 233.278 20.5757C233.353 20.1098 233.293 19.9193 232.979 20.3656L231.592 22.3389C227.834 27.6835 230.622 36.2665 237.773 42.5168C241.495 45.7696 244.922 40.0518 241.561 37.13Z" fill="#81B64C"/>
<ellipse cx="252.209" cy="27.4656" rx="19.815" ry="13.1158" transform="rotate(35.1123 252.209 27.4656)" fill="#81B64C"/>
<path d="M264.188 29.9333C265.364 31.0359 265.552 31.043 264.676 32.2896C263.571 33.8607 262.584 33.6677 261.499 33.5506L257.688 33.1403L257.052 35.3193C256.921 35.777 256.76 36.1177 256.574 36.3424C255.569 37.913 253.105 39.0411 252.123 37.2143L249.369 32.0364L243.565 31.1971C241.514 30.8908 241.74 28.1345 242.878 26.6575C243.026 26.4067 243.292 26.1396 243.679 25.862L245.514 24.526L243.84 21.1345C243.363 20.1526 242.927 19.3453 244.032 17.7741C245.025 16.3612 244.948 16.6805 246.383 17.4143C252.79 20.8335 258.794 25.0533 264.188 29.9333Z" fill="#5D9948"/>
<path d="M245.157 28.7061C242.604 28.3178 242.058 27.3136 243.69 26.1006L247.646 23.2456L245.276 18.559C244.121 16.301 244.878 15.8195 247.257 17.3254L252.468 20.6647L256.78 18.5515C258.683 17.627 259.735 18.3671 259.481 20.451L258.951 25.2233L263.922 29.0429C266.144 30.7726 265.961 31.6274 263.431 31.3245L258.163 30.6403L256.825 35.3752C256.286 37.3283 255.157 37.1535 253.914 34.9023L251.035 29.632L245.157 28.7061Z" fill="white"/>
</svg>
