<svg width="133" height="111" viewBox="0 0 133 111" fill="none" xmlns="http://www.w3.org/2000/svg">
<path d="M66.3116 0C63.4129 0.0306441 59.2235 1.56925 56.7201 6.71671L44.9678 30.2661L14.4409 31.7523C13.4358 31.8061 10.1826 32.1335 9.34036 32.2445C0.983321 33.5074 0.000111295 37.2677 9.20174e-05 45.8063C0.000149939 56.5677 4.80738 58.8638 9.80839 61.8256L27.3628 72.2259L23.5263 84.2641C22.7068 86.782 22.3716 88.8637 22.4908 90.4921C22.0642 100.93 29.2215 114.042 38.9286 108.835L66.3116 93.9764L93.6945 108.835C103.402 114.042 110.733 100.681 110.307 90.2431C110.426 88.6147 110.091 86.533 109.271 84.0151L105.435 71.9769L122.815 61.8256C127.816 58.8638 132.113 56.5677 132.113 45.8063C132.113 36.1281 131.64 33.5074 123.283 32.2445C122.44 32.1335 119.187 31.8061 118.182 31.7523L87.8287 30.2661L76.0764 6.71671C73.5731 1.56925 69.2103 0.0306441 66.3116 0Z" fill="#FCE26A"/>
<path d="M74.7756 10.2965C69.6503 0.390035 63.2154 0.390147 58.2609 10.2965L46.7004 32.8239L15.3781 34.2457C1.31206 34.978 -0.396338 39.2857 10.8224 45.7467L34.342 58.9694L26.1984 83.8229C22.7816 94.0311 27.9075 96.7447 39.468 90.7145L66.4045 76.5006L93.1125 90.5426C104.673 96.702 109.799 93.9884 106.61 83.651L98.6369 58.9694L121.815 45.7467C133.033 39.4149 131.325 34.978 117.259 34.2457L86.3361 32.8239L74.7756 10.2965Z" fill="#F7C631"/>
<path d="M38.9385 105.516L66.321 90.6563V79.8634L39.4799 94.0279C32.467 97.686 26.8522 98.1262 24.5899 95.6276C24.5899 95.6276 29.0416 110.464 38.9385 105.516Z" fill="#F7C631"/>
<path d="M122.839 48.931L101.895 60.9414L104.576 69.1883L105.445 68.657L122.825 58.5057C127.826 55.544 129.761 54.8362 130 45.8822C130.078 42.9556 129.04 45.3723 122.839 48.931Z" fill="#F7C631"/>
<mask id="mask0_12151_170149" style="mask-type:alpha" maskUnits="userSpaceOnUse" x="3" y="2" width="127" height="92">
<path d="M74.7756 10.2964C69.6503 0.390083 63.2153 0.390156 58.2609 10.2964L46.7004 32.8238L15.3781 34.2457C1.31225 34.978 -0.396251 39.2857 10.8224 45.7466L34.342 58.9703L26.1984 83.8228C22.7817 94.031 27.9076 96.7445 39.468 90.7144L66.4045 76.5005L93.1135 90.5425C104.674 96.7018 109.799 93.9884 106.61 83.6509L98.6369 58.9703L121.815 45.7466C133.033 39.4148 131.325 34.9779 117.259 34.2457L86.3361 32.8238L74.7756 10.2964Z" fill="#F7C631"/>
</mask>
<g mask="url(#mask0_12151_170149)">
<ellipse cx="128.465" cy="96.5248" rx="128.465" ry="96.5248" transform="matrix(-1 0 0 1 78.877 16.9844)" fill="#FAD541"/>
<ellipse cx="128.465" cy="96.5248" rx="128.465" ry="96.5248" transform="matrix(-1 0 0 1 309.316 -111.371)" fill="#FAD541"/>
</g>
</svg>
