<svg width="133" height="111" viewBox="0 0 133 111" fill="none" xmlns="http://www.w3.org/2000/svg">
<path d="M66.3116 0C63.4129 0.0306441 59.2235 1.56925 56.7201 6.71671L44.9678 30.2661L14.4409 31.7523C13.4358 31.8061 10.1826 32.1335 9.34036 32.2445C0.983321 33.5074 0.000111295 37.2677 9.20174e-05 45.8063C0.000149939 56.5677 4.80738 58.8638 9.80839 61.8256L27.3628 72.2259L23.5263 84.2641C22.7068 86.782 22.3716 88.8637 22.4908 90.4921C22.0642 100.93 29.2215 114.042 38.9286 108.835L66.3116 93.9764L93.6945 108.835C103.402 114.042 110.733 100.681 110.307 90.2431C110.426 88.6147 110.091 86.533 109.271 84.0151L105.435 71.9769L122.815 61.8256C127.816 58.8638 132.113 56.5677 132.113 45.8063C132.113 36.1281 131.64 33.5074 123.283 32.2445C122.44 32.1335 119.187 31.8061 118.182 31.7523L87.8287 30.2661L76.0764 6.71671C73.5731 1.56925 69.2103 0.0306441 66.3116 0Z" fill="#33190D"/>
</svg>
