<svg width="26" height="26" viewBox="56 30 26 26" fill="none" xmlns="http://www.w3.org/2000/svg">
<path d="M67.2344 49.5534C66.8918 50.0405 66.126 49.7339 66.2142 49.145L66.9138 44.4881C66.9455 44.2767 66.855 44.0652 66.6801 43.9423L62.8263 41.2347C62.3392 40.8921 62.6458 40.1262 63.2347 40.2144L67.8923 40.9143C68.1037 40.9461 68.3152 40.8555 68.4381 40.6806L71.1457 36.8268C71.4883 36.3397 72.2542 36.6463 72.166 37.2353L71.4661 41.8929C71.4343 42.1043 71.5249 42.3157 71.6998 42.4386L75.5529 45.146C76.04 45.4886 75.7334 46.2544 75.1445 46.1662L70.4875 45.4666C70.2761 45.4349 70.0647 45.5254 69.9418 45.7003L67.2344 49.5534Z" fill="white" fill-opacity="0.99"/>
</svg>
