<svg width="66" height="64" viewBox="6 78 66 64" fill="none" xmlns="http://www.w3.org/2000/svg">
<path d="M7.01591 95.8808C5.90856 92.8202 6.60638 89.9362 8.53002 87.787C10.2341 85.8864 11.8739 84.2586 11.8739 84.2586L46.766 81.2341C51.0767 80.8127 55.8652 83.7692 57.6958 87.8784L70.2622 118.77C70.2622 118.77 69.5749 119.516 67.3322 121.916C66.7134 122.575 65.978 123.122 65.1103 123.517L36.2186 136.745C29.6286 139.768 21.898 137.022 19.545 130.506L7.01591 95.8808Z" fill="#5E53D9"/>
<path d="M9.76879 92.9535C7.69255 87.1989 12.0105 82.0192 18.8649 81.3405L49.5046 78.323C53.8152 77.9016 58.6047 80.8571 60.4353 84.9663L71.2674 109.196C73.2655 113.685 71.8652 118.768 67.8632 120.591L38.9715 133.818C32.3815 136.84 24.6509 134.095 22.2979 127.579L9.76879 92.9535Z" fill="#7A66F4"/>
<path d="M9.76894 92.9535C7.69271 87.1989 22.3755 122.651 24.3322 127.106C26.2889 131.562 31.5113 133.067 37.9248 130.875C44.3383 128.684 62.3864 120.746 67.7922 118.076C73.198 115.405 71.2675 109.196 71.2675 109.196C73.2656 113.685 71.8654 118.768 67.8634 120.591L38.9717 133.818C32.3816 136.84 24.651 134.095 22.2981 127.579L9.76894 92.9535Z" fill="#9881F2"/>
<path d="M63.4148 113.296C62.1142 113.888 61.1165 114.29 60.6422 112.233L59.5799 107.587L56.3084 100.018L57.3217 96.4616L61.8136 106.753L64.4637 110.594C65.6062 112.255 64.6107 112.753 63.4237 113.294L63.4126 113.298L63.4148 113.296ZM36.0603 114.339L32.9692 106.352C32.0517 103.984 36.2095 101.388 42.9574 99.7333C49.0416 98.2431 53.008 98.5723 53.8342 100.507L56.6157 107.013C52.6583 113.414 52.1149 114.895 49.634 115.934C47.0284 117.026 45.4517 116.343 36.0626 114.337L36.0603 114.339ZM29.4595 107.576L24.2883 105.614C20.322 104.01 19.9635 102.587 22.8853 100.062L35.007 89.3199C37.1048 87.5139 38.8241 87.2959 41.8907 88.359L55.4688 93.2344C57.923 94.084 58.4486 95.0871 57.5399 97.1244L56.3195 100C54.7873 96.4549 49.5917 95.1827 41.8929 96.8508C33.016 98.7725 27.7157 102.985 29.4617 107.576L29.4595 107.576Z" fill="white"/>
</svg>
