<svg width="66" height="64" viewBox="219 78 66 64" fill="none" xmlns="http://www.w3.org/2000/svg">
<path d="M283.945 95.8808C285.052 92.8202 284.355 89.9362 282.431 87.787C280.727 85.8864 279.087 84.2586 279.087 84.2586L244.195 81.2341C239.884 80.8127 235.096 83.7692 233.265 87.8784L220.699 118.77C220.699 118.77 221.386 119.516 223.629 121.916C224.248 122.575 224.983 123.122 225.851 123.517L254.742 136.745C261.332 139.768 269.063 137.022 271.416 130.506L283.945 95.8808Z" fill="#DC501D"/>
<path d="M281.192 92.9535C283.268 87.1989 278.95 82.0192 272.096 81.3405L241.456 78.323C237.146 77.9016 232.356 80.8571 230.526 84.9663L219.694 109.196C217.695 113.685 219.096 118.768 223.098 120.591L251.989 133.818C258.579 136.84 266.31 134.095 268.663 127.579L281.192 92.9535Z" fill="#FA742C"/>
<path d="M281.192 92.9535C283.268 87.1989 268.585 122.651 266.629 127.106C264.672 131.562 259.45 133.067 253.036 130.875C246.623 128.684 228.575 120.746 223.169 118.076C217.763 115.405 219.693 109.196 219.693 109.196C217.695 113.685 219.096 118.768 223.098 120.591L251.989 133.818C258.579 136.84 266.31 134.095 268.663 127.579L281.192 92.9535Z" fill="#FFA459"/>
<g clip-path="url(#clip0_12151_170161)">
<path d="M236.906 115.153L232.109 100.708C231.37 98.4792 231.933 97.296 234.376 95.8081L237.95 93.6408C238.653 93.2278 239.3 93.0287 239.651 93.8107C240.024 94.8416 239.26 96.5608 239.817 97.8817C240.594 99.5248 242.864 100.034 244.873 98.7545C246.839 97.6064 247.732 95.4098 246.897 93.8693C246.222 92.4986 244.22 92.4107 243.715 91.5584C243.286 90.6915 243.859 90.2082 244.602 89.7338L248.484 87.4493C251.127 85.8941 252.412 86.0259 253.712 88.0204L255.832 91.3065C256.263 91.986 256.777 92.2057 257.622 91.8015C258.842 91.1425 259.174 89.4614 261.183 88.284C263.337 87.2062 265.774 87.5459 267.018 89.0865C268.257 90.6798 267.597 92.9408 265.453 94.2998C263.321 95.4303 261.282 94.8533 260.083 95.5914C259.273 96.0776 259.18 96.6868 259.68 97.4073L262.268 101.566C264.03 104.425 263.531 105.998 260.188 107.728L242.297 117.221C239.25 118.796 237.904 118.278 236.881 115.197L236.903 115.15L236.906 115.153Z" fill="white"/>
</g>
<defs>
<clipPath id="clip0_12151_170161">
<rect width="35.8365" height="31.7016" fill="white" transform="translate(231.807 86.3921)"/>
</clipPath>
</defs>
</svg>
