<svg width="291" height="146" viewBox="0 0 291 146" fill="none" xmlns="http://www.w3.org/2000/svg">
<path d="M243.157 19.485C244.265 16.947 247.261 15.4075 250.022 16.0017L272.359 20.3953C272.359 20.3953 273.894 22.244 274.956 24.1522C275.655 25.416 275.909 26.8433 275.554 28.2729L269.793 51.4668C268.625 56.1718 263.591 57.8331 258.965 55.1985L238.722 43.7001C237.935 43.2515 237.298 42.6382 236.807 41.9196C235.534 40.0553 235.181 39.462 235.181 39.462L243.149 19.4734L243.157 19.485Z" fill="#5D9948"/>
<path d="M241.68 17.2497C242.788 14.7117 245.785 13.1734 248.546 13.7676L267.777 17.9337C272.005 18.8509 274.961 22.4569 274.075 26.0473L268.315 49.2414C267.147 53.9464 262.112 55.6074 257.487 52.9729L237.244 41.4746C234.442 39.8847 233.421 36.0949 234.77 33.0248L241.668 17.2565L241.68 17.2497Z" fill="#81B64C"/>
<path d="M241.678 17.25C239.868 21.3696 236.852 29.9076 235.804 32.9488C234.756 35.9901 235.66 39.4097 237.798 40.5649C239.937 41.7202 252.712 49.1816 258.313 51.8326C263.915 54.4836 267.81 51.2722 268.314 49.2417C267.146 53.9466 262.11 55.6087 257.485 52.9741L237.243 41.4749C234.441 39.885 233.419 36.0961 234.769 33.026L241.667 17.2577L241.678 17.25Z" fill="#B2E068"/>
<path d="M265.301 34.1159L264.532 33.9696L266.149 27.2848L266.84 27.5774C268.134 28.0686 268.552 28.7039 268.311 29.8042L267.636 32.8977C267.378 34.0766 266.713 34.4346 265.306 34.105V34.1159H265.301ZM257.447 27.5905C258.321 27.8546 259.235 27.4289 259.465 26.6735C259.694 25.9182 259.18 25.0667 258.317 24.8397C257.502 24.6257 256.599 25.0558 256.354 25.7959C256.109 26.536 256.621 27.3416 257.447 27.5905ZM251.648 25.8461C252.371 26.0644 253.226 25.6737 253.473 24.9838C253.72 24.2939 253.3 23.5189 252.583 23.3311C251.853 23.139 251.057 23.5516 250.797 24.2306C250.544 24.8921 250.911 25.6256 251.648 25.8483V25.8461ZM258.208 31.9851L257.779 29.85C254.988 30.1666 251.927 29.1143 250.201 27.3656L248.819 28.6733C250.815 30.8193 254.835 32.317 258.219 31.9895L258.208 31.9851ZM244.224 26.7718C243.501 26.4006 243.372 25.9247 243.73 25.1191L244.679 22.9818C245.02 22.2156 245.464 21.9492 246.268 22.0584L246.729 22.0977L244.62 27.0119L244.224 26.7718ZM248.913 36.2379L249.711 34.0395L246.661 32.7492C244.972 32.0332 244.674 31.1992 245.405 29.4352L248.963 20.8358C249.573 19.3622 250.301 18.9889 251.923 19.3316L261.974 21.4558C264.171 21.9208 264.772 22.6871 264.283 24.5341L261.375 35.5349C260.765 37.8404 259.727 38.2792 257.342 37.2705L253.563 35.6703L252.793 38.0194L254.448 38.7791C256.726 39.8248 257.495 41.0343 257.432 43.737V43.5908C253.458 43.9401 245.496 39.6917 243.678 36.6811L243.612 36.7684C244.797 35.0809 245.756 34.7883 247.54 35.607L248.911 36.2357L248.913 36.2379Z" fill="white"/>
<path d="M7.01591 95.8808C5.90856 92.8202 6.60638 89.9362 8.53002 87.787C10.2341 85.8864 11.8739 84.2586 11.8739 84.2586L46.766 81.2341C51.0767 80.8127 55.8652 83.7692 57.6958 87.8784L70.2622 118.77C70.2622 118.77 69.5749 119.516 67.3322 121.916C66.7134 122.575 65.978 123.122 65.1103 123.517L36.2186 136.745C29.6286 139.768 21.898 137.022 19.545 130.506L7.01591 95.8808Z" fill="#5E53D9"/>
<path d="M9.76879 92.9535C7.69255 87.1989 12.0105 82.0192 18.8649 81.3405L49.5046 78.323C53.8152 77.9016 58.6047 80.8571 60.4353 84.9663L71.2674 109.196C73.2655 113.685 71.8652 118.768 67.8632 120.591L38.9715 133.818C32.3815 136.84 24.6509 134.095 22.2979 127.579L9.76879 92.9535Z" fill="#7A66F4"/>
<path d="M9.76894 92.9535C7.69271 87.1989 22.3755 122.651 24.3322 127.106C26.2889 131.562 31.5113 133.067 37.9248 130.875C44.3383 128.684 62.3864 120.746 67.7922 118.076C73.198 115.405 71.2675 109.196 71.2675 109.196C73.2656 113.685 71.8654 118.768 67.8634 120.591L38.9717 133.818C32.3816 136.84 24.651 134.095 22.2981 127.579L9.76894 92.9535Z" fill="#9881F2"/>
<path d="M63.4148 113.296C62.1142 113.888 61.1165 114.29 60.6422 112.233L59.5799 107.587L56.3084 100.018L57.3217 96.4616L61.8136 106.753L64.4637 110.594C65.6062 112.255 64.6107 112.753 63.4237 113.294L63.4126 113.298L63.4148 113.296ZM36.0603 114.339L32.9692 106.352C32.0517 103.984 36.2095 101.388 42.9574 99.7333C49.0416 98.2431 53.008 98.5723 53.8342 100.507L56.6157 107.013C52.6583 113.414 52.1149 114.895 49.634 115.934C47.0284 117.026 45.4517 116.343 36.0626 114.337L36.0603 114.339ZM29.4595 107.576L24.2883 105.614C20.322 104.01 19.9635 102.587 22.8853 100.062L35.007 89.3199C37.1048 87.5139 38.8241 87.2959 41.8907 88.359L55.4688 93.2344C57.923 94.084 58.4486 95.0871 57.5399 97.1244L56.3195 100C54.7873 96.4549 49.5917 95.1827 41.8929 96.8508C33.016 98.7725 27.7157 102.985 29.4617 107.576L29.4595 107.576Z" fill="white"/>
<path d="M283.945 95.8808C285.052 92.8202 284.355 89.9362 282.431 87.787C280.727 85.8864 279.087 84.2586 279.087 84.2586L244.195 81.2341C239.884 80.8127 235.096 83.7692 233.265 87.8784L220.699 118.77C220.699 118.77 221.386 119.516 223.629 121.916C224.248 122.575 224.983 123.122 225.851 123.517L254.742 136.745C261.332 139.768 269.063 137.022 271.416 130.506L283.945 95.8808Z" fill="#DC501D"/>
<path d="M281.192 92.9535C283.268 87.1989 278.95 82.0192 272.096 81.3405L241.456 78.323C237.146 77.9016 232.356 80.8571 230.526 84.9663L219.694 109.196C217.695 113.685 219.096 118.768 223.098 120.591L251.989 133.818C258.579 136.84 266.31 134.095 268.663 127.579L281.192 92.9535Z" fill="#FA742C"/>
<path d="M281.192 92.9535C283.268 87.1989 268.585 122.651 266.629 127.106C264.672 131.562 259.45 133.067 253.036 130.875C246.623 128.684 228.575 120.746 223.169 118.076C217.763 115.405 219.693 109.196 219.693 109.196C217.695 113.685 219.096 118.768 223.098 120.591L251.989 133.818C258.579 136.84 266.31 134.095 268.663 127.579L281.192 92.9535Z" fill="#FFA459"/>
<g clip-path="url(#clip0_12151_170161)">
<path d="M236.906 115.153L232.109 100.708C231.37 98.4792 231.933 97.296 234.376 95.8081L237.95 93.6408C238.653 93.2278 239.3 93.0287 239.651 93.8107C240.024 94.8416 239.26 96.5608 239.817 97.8817C240.594 99.5248 242.864 100.034 244.873 98.7545C246.839 97.6064 247.732 95.4098 246.897 93.8693C246.222 92.4986 244.22 92.4107 243.715 91.5584C243.286 90.6915 243.859 90.2082 244.602 89.7338L248.484 87.4493C251.127 85.8941 252.412 86.0259 253.712 88.0204L255.832 91.3065C256.263 91.986 256.777 92.2057 257.622 91.8015C258.842 91.1425 259.174 89.4614 261.183 88.284C263.337 87.2062 265.774 87.5459 267.018 89.0865C268.257 90.6798 267.597 92.9408 265.453 94.2998C263.321 95.4303 261.282 94.8533 260.083 95.5914C259.273 96.0776 259.18 96.6868 259.68 97.4073L262.268 101.566C264.03 104.425 263.531 105.998 260.188 107.728L242.297 117.221C239.25 118.796 237.904 118.278 236.881 115.197L236.903 115.15L236.906 115.153Z" fill="white"/>
</g>
<path d="M15.766 18.7671C14.9318 16.4614 15.4575 14.2887 16.9067 12.6696C18.1904 11.2378 19.4258 10.0115 19.4258 10.0115L45.7118 7.73298C48.9592 7.41548 52.5666 9.64275 53.9458 12.7384L63.4127 36.0108C63.4127 36.0108 62.8949 36.5725 61.2053 38.381C60.7391 38.8774 60.1852 39.2895 59.5315 39.5871L37.7659 49.5525C32.8013 51.8292 26.9774 49.7611 25.2048 44.8521L15.766 18.7671Z" fill="#5D9948"/>
<path d="M17.8397 16.5624C16.2756 12.2272 19.5285 8.32499 24.6923 7.81374L47.7747 5.5405C51.0222 5.223 54.6303 7.44951 56.0094 10.5452L64.1698 28.7988C65.675 32.1804 64.6202 36.01 61.6052 37.3832L39.8396 47.3479C34.875 49.6246 29.0512 47.5565 27.2786 42.6474L17.8397 16.5624Z" fill="#81B64C"/>
<path d="M17.84 16.5623C16.2759 12.2271 27.3372 38.935 28.8113 42.2915C30.2854 45.648 34.2196 46.7815 39.0512 45.1306C43.8829 43.4797 57.4795 37.4998 61.5519 35.4881C65.6243 33.4764 64.17 28.7988 64.17 28.7988C65.6753 32.1804 64.6204 36.01 61.6055 37.3831L39.8399 47.3478C34.8753 49.6245 29.0515 47.5564 27.2788 42.6473L17.84 16.5623Z" fill="#B2E068"/>
<path d="M34.9487 40.5219C34.0046 38.2973 34.2805 36.9988 35.9825 35.3183L37.3678 33.9428C40.0267 31.3311 40.3138 30.8942 39.9551 30.0488C38.8693 27.4905 36.8338 28.3544 34.9597 23.9385C34.8181 23.6048 34.6923 23.2775 34.5935 22.9519L38.8101 23.1445C39.9063 23.1912 41.2856 22.6059 42.0136 21.785L44.8046 18.6184C44.9701 18.9157 45.1229 19.2447 45.2597 19.5673C47.1338 23.9831 44.987 24.8942 46.0728 27.4525C46.4363 28.309 46.9756 28.3427 50.6569 28.2636L52.734 28.2091C55.1141 28.1572 56.2508 28.8562 57.1949 31.0808L57.3365 31.4145L35.0903 40.8556L34.9487 40.5219ZM40.7942 20.6748C40.2351 21.3059 39.7123 21.5278 38.8699 21.4915L28.3364 21.0131C27.494 20.9768 27.3996 20.7544 27.9587 20.1233L35.8282 11.6642L47.3463 11.8953C48.1887 11.9316 48.3276 12.1352 47.7573 12.771L45.6067 15.2195C47.8777 15.529 48.9808 16.7673 49.4735 21.0212L53.1517 21.3373C52.4451 22.858 51.6355 23.8579 50.6011 24.2969C49.2395 23.4702 48.0381 23.1137 47.7699 21.3373C47.2938 17.3389 46.6155 16.6685 44.4581 16.534L37.1912 16.1132L35.7892 17.7583L43.0706 18.1204L40.7942 20.6748Z" fill="white"/>
<defs>
<clipPath id="clip0_12151_170161">
<rect width="35.8365" height="31.7016" fill="white" transform="translate(231.807 86.3921)"/>
</clipPath>
</defs>
</svg>
