<svg width="101" height="88" viewBox="0 0 101 88" fill="none" xmlns="http://www.w3.org/2000/svg">
<circle opacity="0.2" cx="14.4492" cy="18.1778" r="10.1647" transform="rotate(-15 14.4492 18.1778)" fill="url(#paint0_radial_12151_170201)"/>
<circle opacity="0.2" cx="82.8485" cy="9.5647" r="7.8096" transform="rotate(-15 82.8485 9.5647)" fill="url(#paint1_radial_12151_170201)"/>
<circle opacity="0.2" cx="69.7219" cy="42.3657" r="21.7929" transform="rotate(45 69.7219 42.3657)" fill="url(#paint2_radial_12151_170201)"/>
<circle opacity="0.2" cx="14.9099" cy="72.9099" r="10.5429" transform="rotate(45 14.9099 72.9099)" fill="url(#paint3_radial_12151_170201)"/>
<path d="M85.3374 11.5583C85.5535 11.7349 85.3842 12.0825 85.1119 12.0214L82.9587 11.5368C82.861 11.5148 82.7591 11.5499 82.6957 11.6275L81.2996 13.3374C81.123 13.5534 80.7754 13.3842 80.8365 13.1119L81.3213 10.9584C81.3433 10.8607 81.3081 10.7588 81.2305 10.6954L79.5207 9.2993C79.3046 9.12268 79.4738 8.77506 79.7461 8.83622L81.8996 9.32097C81.9974 9.34297 82.0993 9.3078 82.1627 9.2302L83.5586 7.52069C83.7352 7.3046 84.0828 7.47384 84.0217 7.74614L83.5371 9.89933C83.5151 9.99708 83.5503 10.099 83.6279 10.1623L85.3374 11.5583Z" fill="white" fill-opacity="0.99"/>
<path d="M17.4539 20.4041C17.7029 20.6076 17.5079 21.0081 17.1941 20.9377L14.7133 20.3793C14.6007 20.354 14.4833 20.3945 14.4103 20.4839L12.8017 22.4539C12.5982 22.7029 12.1977 22.5079 12.2682 22.1942L12.8267 19.713C12.852 19.6004 12.8115 19.483 12.7221 19.4099L10.7521 17.8014C10.5031 17.5979 10.6981 17.1974 11.0119 17.2679L13.4931 17.8264C13.6057 17.8517 13.7231 17.8112 13.7961 17.7218L15.4045 15.7522C15.6079 15.5032 16.0085 15.6982 15.938 16.0119L15.3797 18.4927C15.3543 18.6054 15.3948 18.7228 15.4842 18.7958L17.4539 20.4041Z" fill="white" fill-opacity="0.99"/>
<path d="M18.4539 74.4041C18.7029 74.6076 18.5079 75.0081 18.1941 74.9377L15.7133 74.3793C15.6007 74.354 15.4833 74.3945 15.4103 74.4839L13.8017 76.4539C13.5982 76.7029 13.1977 76.5079 13.2682 76.1942L13.8267 73.713C13.852 73.6004 13.8115 73.483 13.7221 73.4099L11.7521 71.8014C11.5031 71.5979 11.6981 71.1974 12.0119 71.2679L14.4931 71.8264C14.6057 71.8517 14.7231 71.8112 14.7961 71.7218L16.4045 69.7522C16.6079 69.5032 17.0085 69.6982 16.938 70.0119L16.3797 72.4927C16.3543 72.6054 16.3948 72.7228 16.4842 72.7958L18.4539 74.4041Z" fill="white" fill-opacity="0.99"/>
<path d="M67.2344 49.5534C66.8918 50.0405 66.126 49.7339 66.2142 49.145L66.9138 44.4881C66.9455 44.2767 66.855 44.0652 66.6801 43.9423L62.8263 41.2347C62.3392 40.8921 62.6458 40.1262 63.2347 40.2144L67.8923 40.9143C68.1037 40.9461 68.3152 40.8555 68.4381 40.6806L71.1457 36.8268C71.4883 36.3397 72.2542 36.6463 72.166 37.2353L71.4661 41.8929C71.4343 42.1043 71.5249 42.3157 71.6998 42.4386L75.5529 45.146C76.04 45.4886 75.7334 46.2544 75.1445 46.1662L70.4875 45.4666C70.2761 45.4349 70.0647 45.5254 69.9418 45.7003L67.2344 49.5534Z" fill="white" fill-opacity="0.99"/>
<defs>
<radialGradient id="paint0_radial_12151_170201" cx="0" cy="0" r="1" gradientUnits="userSpaceOnUse" gradientTransform="translate(14.4492 18.1778) rotate(90) scale(10.1647)">
<stop stop-color="#FCE26A"/>
<stop offset="1" stop-color="#FCE26A" stop-opacity="0"/>
</radialGradient>
<radialGradient id="paint1_radial_12151_170201" cx="0" cy="0" r="1" gradientUnits="userSpaceOnUse" gradientTransform="translate(82.8485 9.5647) rotate(90) scale(7.8096)">
<stop stop-color="#FCE26A"/>
<stop offset="1" stop-color="#FCE26A" stop-opacity="0"/>
</radialGradient>
<radialGradient id="paint2_radial_12151_170201" cx="0" cy="0" r="1" gradientUnits="userSpaceOnUse" gradientTransform="translate(69.7219 42.3657) rotate(90) scale(21.7929)">
<stop stop-color="#FCE26A"/>
<stop offset="1" stop-color="#FCE26A" stop-opacity="0"/>
</radialGradient>
<radialGradient id="paint3_radial_12151_170201" cx="0" cy="0" r="1" gradientUnits="userSpaceOnUse" gradientTransform="translate(14.9099 72.9099) rotate(90) scale(10.5429)">
<stop stop-color="#FCE26A"/>
<stop offset="1" stop-color="#FCE26A" stop-opacity="0"/>
</radialGradient>
</defs>
</svg>
