<svg width="10" height="10" viewBox="10 14 10 10" fill="none" xmlns="http://www.w3.org/2000/svg">
<path d="M17.4539 20.4041C17.7029 20.6076 17.5079 21.0081 17.1941 20.9377L14.7133 20.3793C14.6007 20.354 14.4833 20.3945 14.4103 20.4839L12.8017 22.4539C12.5982 22.7029 12.1977 22.5079 12.2682 22.1942L12.8267 19.713C12.852 19.6004 12.8115 19.483 12.7221 19.4099L10.7521 17.8014C10.5031 17.5979 10.6981 17.1974 11.0119 17.2679L13.4931 17.8264C13.6057 17.8517 13.7231 17.8112 13.7961 17.7218L15.4045 15.7522C15.6079 15.5032 16.0085 15.6982 15.938 16.0119L15.3797 18.4927C15.3543 18.6054 15.3948 18.7228 15.4842 18.7958L17.4539 20.4041Z" fill="white" fill-opacity="0.99"/>
</svg>
