<svg width="44" height="48" viewBox="233 13 44 48" fill="none" xmlns="http://www.w3.org/2000/svg">
<path d="M243.157 19.485C244.265 16.947 247.261 15.4075 250.022 16.0017L272.359 20.3953C272.359 20.3953 273.894 22.244 274.956 24.1522C275.655 25.416 275.909 26.8433 275.554 28.2729L269.793 51.4668C268.625 56.1718 263.591 57.8331 258.965 55.1985L238.722 43.7001C237.935 43.2515 237.298 42.6382 236.807 41.9196C235.534 40.0553 235.181 39.462 235.181 39.462L243.149 19.4734L243.157 19.485Z" fill="#5D9948"/>
<path d="M241.68 17.2497C242.788 14.7117 245.785 13.1734 248.546 13.7676L267.777 17.9337C272.005 18.8509 274.961 22.4569 274.075 26.0473L268.315 49.2414C267.147 53.9464 262.112 55.6074 257.487 52.9729L237.244 41.4746C234.442 39.8847 233.421 36.0949 234.77 33.0248L241.668 17.2565L241.68 17.2497Z" fill="#81B64C"/>
<path d="M241.678 17.25C239.868 21.3696 236.852 29.9076 235.804 32.9488C234.756 35.9901 235.66 39.4097 237.798 40.5649C239.937 41.7202 252.712 49.1816 258.313 51.8326C263.915 54.4836 267.81 51.2722 268.314 49.2417C267.146 53.9466 262.11 55.6087 257.485 52.9741L237.243 41.4749C234.441 39.885 233.419 36.0961 234.769 33.026L241.667 17.2577L241.678 17.25Z" fill="#B2E068"/>
<path d="M265.301 34.1159L264.532 33.9696L266.149 27.2848L266.84 27.5774C268.134 28.0686 268.552 28.7039 268.311 29.8042L267.636 32.8977C267.378 34.0766 266.713 34.4346 265.306 34.105V34.1159H265.301ZM257.447 27.5905C258.321 27.8546 259.235 27.4289 259.465 26.6735C259.694 25.9182 259.18 25.0667 258.317 24.8397C257.502 24.6257 256.599 25.0558 256.354 25.7959C256.109 26.536 256.621 27.3416 257.447 27.5905ZM251.648 25.8461C252.371 26.0644 253.226 25.6737 253.473 24.9838C253.72 24.2939 253.3 23.5189 252.583 23.3311C251.853 23.139 251.057 23.5516 250.797 24.2306C250.544 24.8921 250.911 25.6256 251.648 25.8483V25.8461ZM258.208 31.9851L257.779 29.85C254.988 30.1666 251.927 29.1143 250.201 27.3656L248.819 28.6733C250.815 30.8193 254.835 32.317 258.219 31.9895L258.208 31.9851ZM244.224 26.7718C243.501 26.4006 243.372 25.9247 243.73 25.1191L244.679 22.9818C245.02 22.2156 245.464 21.9492 246.268 22.0584L246.729 22.0977L244.62 27.0119L244.224 26.7718ZM248.913 36.2379L249.711 34.0395L246.661 32.7492C244.972 32.0332 244.674 31.1992 245.405 29.4352L248.963 20.8358C249.573 19.3622 250.301 18.9889 251.923 19.3316L261.974 21.4558C264.171 21.9208 264.772 22.6871 264.283 24.5341L261.375 35.5349C260.765 37.8404 259.727 38.2792 257.342 37.2705L253.563 35.6703L252.793 38.0194L254.448 38.7791C256.726 39.8248 257.495 41.0343 257.432 43.737V43.5908C253.458 43.9401 245.496 39.6917 243.678 36.6811L243.612 36.7684C244.797 35.0809 245.756 34.7883 247.54 35.607L248.911 36.2357L248.913 36.2379Z" fill="white"/>
</svg>
