<svg width="50" height="46" viewBox="14 5 50 46" fill="none" xmlns="http://www.w3.org/2000/svg">
<path d="M15.766 18.7671C14.9318 16.4614 15.4575 14.2887 16.9067 12.6696C18.1904 11.2378 19.4258 10.0115 19.4258 10.0115L45.7118 7.73298C48.9592 7.41548 52.5666 9.64275 53.9458 12.7384L63.4127 36.0108C63.4127 36.0108 62.8949 36.5725 61.2053 38.381C60.7391 38.8774 60.1852 39.2895 59.5315 39.5871L37.7659 49.5525C32.8013 51.8292 26.9774 49.7611 25.2048 44.8521L15.766 18.7671Z" fill="#5D9948"/>
<path d="M17.8397 16.5624C16.2756 12.2272 19.5285 8.32499 24.6923 7.81374L47.7747 5.5405C51.0222 5.223 54.6303 7.44951 56.0094 10.5452L64.1698 28.7988C65.675 32.1804 64.6202 36.01 61.6052 37.3832L39.8396 47.3479C34.875 49.6246 29.0512 47.5565 27.2786 42.6474L17.8397 16.5624Z" fill="#81B64C"/>
<path d="M17.84 16.5623C16.2759 12.2271 27.3372 38.935 28.8113 42.2915C30.2854 45.648 34.2196 46.7815 39.0512 45.1306C43.8829 43.4797 57.4795 37.4998 61.5519 35.4881C65.6243 33.4764 64.17 28.7988 64.17 28.7988C65.6753 32.1804 64.6204 36.01 61.6055 37.3831L39.8399 47.3478C34.8753 49.6245 29.0515 47.5564 27.2788 42.6473L17.84 16.5623Z" fill="#B2E068"/>
<path d="M34.9487 40.5219C34.0046 38.2973 34.2805 36.9988 35.9825 35.3183L37.3678 33.9428C40.0267 31.3311 40.3138 30.8942 39.9551 30.0488C38.8693 27.4905 36.8338 28.3544 34.9597 23.9385C34.8181 23.6048 34.6923 23.2775 34.5935 22.9519L38.8101 23.1445C39.9063 23.1912 41.2856 22.6059 42.0136 21.785L44.8046 18.6184C44.9701 18.9157 45.1229 19.2447 45.2597 19.5673C47.1338 23.9831 44.987 24.8942 46.0728 27.4525C46.4363 28.309 46.9756 28.3427 50.6569 28.2636L52.734 28.2091C55.1141 28.1572 56.2508 28.8562 57.1949 31.0808L57.3365 31.4145L35.0903 40.8556L34.9487 40.5219ZM40.7942 20.6748C40.2351 21.3059 39.7123 21.5278 38.8699 21.4915L28.3364 21.0131C27.494 20.9768 27.3996 20.7544 27.9587 20.1233L35.8282 11.6642L47.3463 11.8953C48.1887 11.9316 48.3276 12.1352 47.7573 12.771L45.6067 15.2195C47.8777 15.529 48.9808 16.7673 49.4735 21.0212L53.1517 21.3373C52.4451 22.858 51.6355 23.8579 50.6011 24.2969C49.2395 23.4702 48.0381 23.1137 47.7699 21.3373C47.2938 17.3389 46.6155 16.6685 44.4581 16.534L37.1912 16.1132L35.7892 17.7583L43.0706 18.1204L40.7942 20.6748Z" fill="white"/>
</svg>
