<svg width="40" height="45" viewBox="14 0 40 45" fill="none" xmlns="http://www.w3.org/2000/svg">
<path d="M19.8969 4.68251C20.0305 3.96477 20.3353 3.40501 20.7746 2.99339C22.1025 1.74727 23.0613 0.91719 23.0613 0.91719L42.6322 12.6302C44.8325 13.9381 46.8551 16.9082 47.2873 19.4521L51.2949 41.3751C51.2949 41.3751 50.2499 42.5536 48.8934 43.5673C48.2717 44.0314 47.4929 44.2155 46.5807 44.043L24.1746 39.8109C18.6515 38.7717 14.6281 32.7733 15.6768 27.181L19.896 4.69268L19.8969 4.68251Z" fill="#109888"/>
<path d="M21.9859 2.76938C22.5293 -0.111805 25.8885 -0.509891 29.3049 1.51842L44.7212 10.7171C46.9215 12.025 48.9441 14.9951 49.3763 17.539L52.4543 35.5579C53.138 39.5812 51.5549 42.6753 48.6706 42.1197L26.2635 37.8876C20.7404 36.8484 16.717 30.85 17.7657 25.2577L21.9859 2.76938Z" fill="#26C2A3"/>
<path d="M21.9858 2.76874C22.5292 -0.112443 19.4073 23.6503 19.0831 26.2764C18.7589 28.9024 20.3218 35.1219 26.2486 36.2996C32.1754 37.4774 43.4896 39.6325 48.1528 40.4358C52.8159 41.2391 52.4542 35.5583 52.4542 35.5583C53.1379 39.5816 51.5548 42.6757 48.6705 42.1201L26.2634 37.887C20.7403 36.8478 16.7169 30.8503 17.7656 25.2581L21.9858 2.76874Z" fill="#62F6CA"/>
<path d="M33.4499 21.1645C33.2453 21.7447 33.4781 21.9538 33.9862 21.7635L36.6675 20.6783L39.2689 23.6709C39.7111 24.1689 39.8922 24.122 39.7182 23.4642L38.7421 19.8984L40.6025 18.9846C40.906 18.8178 40.8236 18.5618 40.3744 18.3316L37.7777 16.9339L36.6722 13.9741C36.4723 13.4362 36.263 13.3328 36.096 13.6875L35.2069 15.7547L32.0881 14.5637C31.5048 14.3288 31.4154 14.5426 31.8787 15.097L34.3108 18.045L33.4499 21.1622V21.1645ZM48.0586 36.5225C47.607 36.4403 47.1272 36.0785 46.2593 34.7255L42.423 29.0408L44.2341 26.7435L47.8187 31.7046C48.7266 32.8838 49.0088 33.5862 49.1382 34.2721C49.3922 35.6181 48.9124 36.6611 48.0539 36.506V36.5201L48.0586 36.5225ZM37.0744 31.0305C29.5126 29.2499 23.4066 20.3118 24.6014 12.9758C25.5587 7.10791 30.952 5.98272 36.2065 8.96834C40.746 11.5452 44.474 16.8212 45.3278 21.9068C46.3345 27.9109 43.1969 32.4728 37.0744 31.0305ZM36.9074 26.7717C41.2 28.0613 43.6202 25.2213 43.0369 20.9179C42.5195 17.103 39.7464 13.1778 36.303 11.3432C32.4456 9.29016 28.901 10.42 28.5082 14.6577C28.0472 19.6048 31.9799 25.2918 36.9098 26.7717H36.9074Z" fill="white"/>
</svg>
