<svg width="66" height="64" viewBox="219 69 66 64" fill="none" xmlns="http://www.w3.org/2000/svg">
<path d="M283.945 87.5048C285.052 84.4442 284.355 81.5602 282.431 79.411C280.727 77.5104 279.087 75.8826 279.087 75.8826L244.195 72.8582C239.884 72.4367 235.096 75.3932 233.265 79.5024L220.699 110.394C220.699 110.394 221.386 111.14 223.629 113.54C224.248 114.199 224.983 114.746 225.851 115.141L254.742 128.37C261.332 131.392 269.063 128.646 271.416 122.13L283.945 87.5048Z" fill="#DC501D"/>
<path d="M281.192 84.5776C283.268 78.8229 278.95 73.6432 272.096 72.9646L241.456 69.9471C237.146 69.5256 232.356 72.4811 230.526 76.5903L219.694 100.82C217.695 105.309 219.096 110.392 223.098 112.215L251.989 125.442C258.579 128.464 266.31 125.719 268.663 119.203L281.192 84.5776Z" fill="#FA742C"/>
<path d="M281.192 84.5775C283.268 78.8229 268.585 114.275 266.629 118.73C264.672 123.186 259.45 124.691 253.036 122.499C246.623 120.308 228.575 112.37 223.169 109.7C217.763 107.029 219.693 100.82 219.693 100.82C217.695 105.309 219.096 110.392 223.098 112.215L251.989 125.442C258.579 128.464 266.31 125.719 268.663 119.203L281.192 84.5775Z" fill="#FFA459"/>
<g clip-path="url(#clip0_12151_170309)">
<path d="M236.906 106.777L232.109 92.3321C231.37 90.1032 231.933 88.92 234.376 87.4322L237.95 85.2648C238.653 84.8519 239.3 84.6527 239.651 85.4347C240.024 86.4657 239.26 88.1849 239.817 89.5058C240.594 91.1488 242.864 91.6585 244.873 90.3786C246.839 89.2305 247.732 87.0338 246.897 85.4933C246.222 84.1226 244.22 84.0347 243.715 83.1824C243.286 82.3155 243.859 81.8323 244.602 81.3578L248.484 79.0733C251.127 77.5181 252.412 77.6499 253.712 79.6444L255.832 82.9306C256.263 83.6101 256.777 83.8297 257.622 83.4255C258.842 82.7666 259.174 81.0854 261.183 79.908C263.337 78.8302 265.774 79.17 267.018 80.7105C268.257 82.3038 267.597 84.5648 265.453 85.9238C263.321 87.0543 261.282 86.4774 260.083 87.2154C259.273 87.7016 259.18 88.3108 259.68 89.0313L262.268 93.1902C264.03 96.0488 263.531 97.6215 260.188 99.3525L242.297 108.845C239.25 110.42 237.904 109.902 236.881 106.821L236.903 106.774L236.906 106.777Z" fill="white"/>
</g>
<defs>
<clipPath id="clip0_12151_170309">
<rect width="35.8365" height="31.7016" fill="white" transform="translate(231.807 78.0161)"/>
</clipPath>
</defs>
</svg>
