<svg width="181" height="85" viewBox="0 0 181 85" fill="none" xmlns="http://www.w3.org/2000/svg">
<g opacity="0.3" filter="url(#filter0_f_12151_170219)">
<path d="M94.3173 15C94.3173 15 113.317 80.5 94.3172 80.5C75.3173 80.5 94.3173 15 94.3173 15Z" fill="url(#paint0_radial_12151_170219)" fill-opacity="0.8"/>
<path d="M81.8173 11.5C81.8173 11.5 57.3171 86 44.2611 70.8763C19.6536 69.248 81.8173 11.5 81.8173 11.5Z" fill="url(#paint1_radial_12151_170219)" fill-opacity="0.8"/>
<path d="M106.817 11.5C106.817 11.5 160.897 68.1301 141.12 76.6966C136.098 97.3858 106.817 11.5 106.817 11.5Z" fill="url(#paint2_radial_12151_170219)" fill-opacity="0.8"/>
<path d="M11.1863 45.1032C-21.0754 48.4979 65.7458 5.62208 65.7458 5.62208C65.7458 5.62208 11.5241 70.1144 11.1863 45.1032Z" fill="url(#paint3_radial_12151_170219)" fill-opacity="0.8"/>
<path d="M119.317 4C119.317 4 187.817 45.1032 174.317 54.9999C166.746 72.9119 119.317 4 119.317 4Z" fill="url(#paint4_radial_12151_170219)" fill-opacity="0.8"/>
</g>
<defs>
<filter id="filter0_f_12151_170219" x="0" y="0" width="180.079" height="84.5" filterUnits="userSpaceOnUse" color-interpolation-filters="sRGB">
<feFlood flood-opacity="0" result="BackgroundImageFix"/>
<feBlend mode="normal" in="SourceGraphic" in2="BackgroundImageFix" result="shape"/>
<feGaussianBlur stdDeviation="2" result="effect1_foregroundBlur_12151_170219"/>
</filter>
<radialGradient id="paint0_radial_12151_170219" cx="0" cy="0" r="1" gradientTransform="matrix(-0.396888 44.4158 -83.0465 -0.742354 91.214 21.5842)" gradientUnits="userSpaceOnUse">
<stop stop-color="#AED0F0"/>
<stop offset="1" stop-color="#AED0F0" stop-opacity="0"/>
</radialGradient>
<radialGradient id="paint1_radial_12151_170219" cx="0" cy="0" r="1" gradientTransform="matrix(-0.396888 44.4158 -83.0465 -0.742354 91.214 21.5842)" gradientUnits="userSpaceOnUse">
<stop stop-color="#AED0F0"/>
<stop offset="1" stop-color="#AED0F0" stop-opacity="0"/>
</radialGradient>
<radialGradient id="paint2_radial_12151_170219" cx="0" cy="0" r="1" gradientTransform="matrix(-0.396888 44.4158 -83.0465 -0.742354 91.214 21.5842)" gradientUnits="userSpaceOnUse">
<stop stop-color="#AED0F0"/>
<stop offset="1" stop-color="#AED0F0" stop-opacity="0"/>
</radialGradient>
<radialGradient id="paint3_radial_12151_170219" cx="0" cy="0" r="1" gradientTransform="matrix(-0.396888 44.4158 -83.0465 -0.742354 91.214 21.5842)" gradientUnits="userSpaceOnUse">
<stop stop-color="#AED0F0"/>
<stop offset="1" stop-color="#AED0F0" stop-opacity="0"/>
</radialGradient>
<radialGradient id="paint4_radial_12151_170219" cx="0" cy="0" r="1" gradientTransform="matrix(-0.396888 44.4158 -83.0465 -0.742354 91.214 21.5842)" gradientUnits="userSpaceOnUse">
<stop stop-color="#AED0F0"/>
<stop offset="1" stop-color="#AED0F0" stop-opacity="0"/>
</radialGradient>
</defs>
</svg>
