<svg width="66" height="64" viewBox="6 69 66 64" fill="none" xmlns="http://www.w3.org/2000/svg">
<path d="M7.01591 87.5048C5.90856 84.4442 6.60638 81.5602 8.53002 79.411C10.2341 77.5104 11.8739 75.8826 11.8739 75.8826L46.766 72.8582C51.0767 72.4367 55.8652 75.3932 57.6958 79.5024L70.2622 110.394C70.2622 110.394 69.5749 111.14 67.3322 113.54C66.7134 114.199 65.978 114.746 65.1103 115.141L36.2186 128.37C29.6286 131.392 21.898 128.646 19.545 122.13L7.01591 87.5048Z" fill="#5E53D9"/>
<path d="M9.76879 84.5776C7.69255 78.8229 12.0105 73.6432 18.8649 72.9646L49.5046 69.9471C53.8152 69.5256 58.6047 72.4811 60.4353 76.5903L71.2674 100.82C73.2655 105.309 71.8652 110.392 67.8632 112.215L38.9715 125.442C32.3815 128.464 24.6509 125.719 22.2979 119.203L9.76879 84.5776Z" fill="#7A66F4"/>
<path d="M9.76894 84.5775C7.69271 78.8229 22.3755 114.275 24.3322 118.73C26.2889 123.186 31.5113 124.691 37.9248 122.499C44.3383 120.308 62.3864 112.37 67.7922 109.7C73.198 107.029 71.2675 100.82 71.2675 100.82C73.2656 105.309 71.8654 110.392 67.8634 112.215L38.9717 125.442C32.3816 128.464 24.651 125.719 22.2981 119.203L9.76894 84.5775Z" fill="#9881F2"/>
<path d="M63.4148 104.92C62.1142 105.512 61.1165 105.914 60.6422 103.857L59.5799 99.2108L56.3084 91.642L57.3217 88.0856L61.8136 98.3768L64.4637 102.218C65.6062 103.879 64.6107 104.378 63.4237 104.918L63.4126 104.922L63.4148 104.92ZM36.0603 105.963L32.9692 97.9764C32.0517 95.6077 36.2095 93.0121 42.9574 91.3573C49.0416 89.8672 53.0079 90.1963 53.8342 92.1313L56.6157 98.637C52.6583 105.038 52.1149 106.519 49.634 107.558C47.0284 108.65 45.4517 107.967 36.0626 105.961L36.0603 105.963ZM29.4595 99.1997L24.2883 97.238C20.322 95.6344 19.9635 94.2109 22.8853 91.6865L35.007 80.9439C37.1048 79.1379 38.8241 78.9199 41.8907 79.9831L55.4688 84.8584C57.923 85.708 58.4486 86.7111 57.5399 88.7484L56.3195 91.6242C54.7873 88.079 49.5917 86.8067 41.8929 88.4748C33.016 90.3965 27.7157 94.609 29.4617 99.1997L29.4595 99.1997Z" fill="white"/>
</svg>
