<svg width="12" height="12" viewBox="1 1 12 12" fill="none" xmlns="http://www.w3.org/2000/svg">
<path d="M12.1265 9.55311C12.4707 9.85667 12.2011 10.4541 11.7673 10.349L8.33747 9.51612C8.18176 9.47831 8.01944 9.53876 7.9185 9.67214L5.69463 12.6109C5.41329 12.9823 4.85956 12.6914 4.95698 12.2234L5.72915 8.52207C5.7642 8.35407 5.70818 8.17893 5.58455 8.07001L2.86094 5.67049C2.51673 5.36693 2.78631 4.76946 3.22007 4.87457L6.65043 5.70774C6.80614 5.74555 6.96846 5.6851 7.0694 5.55172L9.29303 2.61351C9.57437 2.2421 10.1281 2.53298 10.0307 3.001L9.25875 6.70178C9.2237 6.86979 9.27972 7.04493 9.40335 7.15385L12.1265 9.55311Z" fill="white" fill-opacity="0.99"/>
</svg>
