<svg width="291" height="137" viewBox="0 0 291 137" fill="none" xmlns="http://www.w3.org/2000/svg">
<path d="M243.156 11.108C244.264 8.57003 247.261 7.03059 250.022 7.62474L272.358 12.0183C272.358 12.0183 273.894 13.867 274.956 15.7753C275.655 17.039 275.909 18.4663 275.554 19.8959L269.792 43.0899C268.625 47.7948 263.59 49.4561 258.965 46.8215L238.722 35.3231C237.935 34.8746 237.298 34.2613 236.806 33.5426C235.533 31.6784 235.18 31.085 235.18 31.085L243.149 11.0964L243.156 11.108Z" fill="#5D9948"/>
<path d="M241.679 8.87275C242.787 6.33476 245.785 4.79647 248.546 5.39062L267.776 9.55672C272.004 10.4739 274.96 14.08 274.075 17.6703L268.315 40.8644C267.147 45.5694 262.111 47.2305 257.486 44.5959L237.244 33.0977C234.442 31.5078 233.42 27.718 234.77 24.6479L241.668 8.8795L241.679 8.87275Z" fill="#81B64C"/>
<path d="M241.678 8.87303C239.867 12.9927 236.852 21.5307 235.804 24.5719C234.755 27.6131 235.659 31.0327 237.798 32.188C239.937 33.3432 252.711 40.8047 258.313 43.4556C263.914 46.1066 267.81 42.8953 268.313 40.8647C267.145 45.5697 262.11 47.2317 257.485 44.5972L237.242 33.098C234.441 31.508 233.419 27.7192 234.768 24.6491L241.666 8.88075L241.678 8.87303Z" fill="#B2E068"/>
<path d="M265.301 25.7399L264.531 25.5936L266.149 18.9088L266.84 19.2014C268.134 19.6926 268.551 20.3279 268.311 21.4282L267.636 24.5217C267.378 25.7006 266.713 26.0587 265.305 25.729V25.7399H265.301ZM257.447 19.2145C258.321 19.4786 259.235 19.0529 259.464 18.2976C259.694 17.5422 259.18 16.6908 258.317 16.4637C257.501 16.2498 256.599 16.6798 256.354 17.4199C256.109 18.16 256.62 18.9656 257.447 19.2145ZM251.647 17.4702C252.371 17.6885 253.226 17.2977 253.473 16.6078C253.72 15.9179 253.3 15.1429 252.583 14.9552C251.853 14.763 251.057 15.1757 250.797 15.8546C250.543 16.5161 250.911 17.2497 251.647 17.4723V17.4702ZM258.207 23.6092L257.779 21.474C254.988 21.7906 251.927 20.7383 250.2 18.9896L248.819 20.2973C250.815 22.4434 254.835 23.941 258.218 23.6135L258.207 23.6092ZM244.224 18.3958C243.5 18.0247 243.371 17.5487 243.73 16.7432L244.679 14.6059C245.02 13.8396 245.463 13.5732 246.268 13.6824L246.729 13.7217L244.62 18.636L244.224 18.3958ZM248.913 27.8619L249.711 25.6635L246.661 24.3733C244.971 23.6572 244.674 22.8232 245.404 21.0593L248.963 12.4598C249.573 10.9862 250.301 10.6129 251.923 10.9556L261.974 13.0798C264.171 13.5448 264.772 14.3111 264.282 16.1581L261.375 27.159C260.765 29.4644 259.727 29.9032 257.342 28.8946L253.562 27.2943L252.793 29.6434L254.448 30.4031C256.725 31.4489 257.495 32.6583 257.431 35.3611V35.2148C253.457 35.5641 245.496 31.3157 243.677 28.3051L243.612 28.3924C244.797 26.7049 245.756 26.4123 247.54 27.231L248.911 27.8598L248.913 27.8619Z" fill="white"/>
<path d="M7.01591 87.5048C5.90856 84.4442 6.60638 81.5602 8.53002 79.411C10.2341 77.5104 11.8739 75.8826 11.8739 75.8826L46.766 72.8582C51.0767 72.4367 55.8652 75.3932 57.6958 79.5024L70.2622 110.394C70.2622 110.394 69.5749 111.14 67.3322 113.54C66.7134 114.199 65.978 114.746 65.1103 115.141L36.2186 128.37C29.6286 131.392 21.898 128.646 19.545 122.13L7.01591 87.5048Z" fill="#5E53D9"/>
<path d="M9.76879 84.5776C7.69255 78.8229 12.0105 73.6432 18.8649 72.9646L49.5046 69.9471C53.8152 69.5256 58.6047 72.4811 60.4353 76.5903L71.2674 100.82C73.2655 105.309 71.8652 110.392 67.8632 112.215L38.9715 125.442C32.3815 128.464 24.6509 125.719 22.2979 119.203L9.76879 84.5776Z" fill="#7A66F4"/>
<path d="M9.76894 84.5775C7.69271 78.8229 22.3755 114.275 24.3322 118.73C26.2889 123.186 31.5113 124.691 37.9248 122.499C44.3383 120.308 62.3864 112.37 67.7922 109.7C73.198 107.029 71.2675 100.82 71.2675 100.82C73.2656 105.309 71.8654 110.392 67.8634 112.215L38.9717 125.442C32.3816 128.464 24.651 125.719 22.2981 119.203L9.76894 84.5775Z" fill="#9881F2"/>
<path d="M63.4148 104.92C62.1142 105.512 61.1165 105.914 60.6422 103.857L59.5799 99.2108L56.3084 91.642L57.3217 88.0856L61.8136 98.3768L64.4637 102.218C65.6062 103.879 64.6107 104.378 63.4237 104.918L63.4126 104.922L63.4148 104.92ZM36.0603 105.963L32.9692 97.9764C32.0517 95.6077 36.2095 93.0121 42.9574 91.3573C49.0416 89.8672 53.0079 90.1963 53.8342 92.1313L56.6157 98.637C52.6583 105.038 52.1149 106.519 49.634 107.558C47.0284 108.65 45.4517 107.967 36.0626 105.961L36.0603 105.963ZM29.4595 99.1997L24.2883 97.238C20.322 95.6344 19.9635 94.2109 22.8853 91.6865L35.007 80.9439C37.1048 79.1379 38.8241 78.9199 41.8907 79.9831L55.4688 84.8584C57.923 85.708 58.4486 86.7111 57.5399 88.7484L56.3195 91.6242C54.7873 88.079 49.5917 86.8067 41.8929 88.4748C33.016 90.3965 27.7157 94.609 29.4617 99.1997L29.4595 99.1997Z" fill="white"/>
<path d="M283.945 87.5048C285.052 84.4442 284.355 81.5602 282.431 79.411C280.727 77.5104 279.087 75.8826 279.087 75.8826L244.195 72.8582C239.884 72.4367 235.096 75.3932 233.265 79.5024L220.699 110.394C220.699 110.394 221.386 111.14 223.629 113.54C224.248 114.199 224.983 114.746 225.851 115.141L254.742 128.37C261.332 131.392 269.063 128.646 271.416 122.13L283.945 87.5048Z" fill="#DC501D"/>
<path d="M281.192 84.5776C283.268 78.8229 278.95 73.6432 272.096 72.9646L241.456 69.9471C237.146 69.5256 232.356 72.4811 230.526 76.5903L219.694 100.82C217.695 105.309 219.096 110.392 223.098 112.215L251.989 125.442C258.579 128.464 266.31 125.719 268.663 119.203L281.192 84.5776Z" fill="#FA742C"/>
<path d="M281.192 84.5775C283.268 78.8229 268.585 114.275 266.629 118.73C264.672 123.186 259.45 124.691 253.036 122.499C246.623 120.308 228.575 112.37 223.169 109.7C217.763 107.029 219.693 100.82 219.693 100.82C217.695 105.309 219.096 110.392 223.098 112.215L251.989 125.442C258.579 128.464 266.31 125.719 268.663 119.203L281.192 84.5775Z" fill="#FFA459"/>
<g clip-path="url(#clip0_12151_170309)">
<path d="M236.906 106.777L232.109 92.3321C231.37 90.1032 231.933 88.92 234.376 87.4322L237.95 85.2648C238.653 84.8519 239.3 84.6527 239.651 85.4347C240.024 86.4657 239.26 88.1849 239.817 89.5058C240.594 91.1488 242.864 91.6585 244.873 90.3786C246.839 89.2305 247.732 87.0338 246.897 85.4933C246.222 84.1226 244.22 84.0347 243.715 83.1824C243.286 82.3155 243.859 81.8323 244.602 81.3578L248.484 79.0733C251.127 77.5181 252.412 77.6499 253.712 79.6444L255.832 82.9306C256.263 83.6101 256.777 83.8297 257.622 83.4255C258.842 82.7666 259.174 81.0854 261.183 79.908C263.337 78.8302 265.774 79.17 267.018 80.7105C268.257 82.3038 267.597 84.5648 265.453 85.9238C263.321 87.0543 261.282 86.4774 260.083 87.2154C259.273 87.7016 259.18 88.3108 259.68 89.0313L262.268 93.1902C264.03 96.0488 263.531 97.6215 260.188 99.3525L242.297 108.845C239.25 110.42 237.904 109.902 236.881 106.821L236.903 106.774L236.906 106.777Z" fill="white"/>
</g>
<path d="M19.8969 4.68251C20.0305 3.96477 20.3353 3.40501 20.7746 2.99339C22.1025 1.74727 23.0613 0.91719 23.0613 0.91719L42.6322 12.6302C44.8325 13.9381 46.8551 16.9082 47.2873 19.4521L51.2949 41.3751C51.2949 41.3751 50.2499 42.5536 48.8934 43.5673C48.2717 44.0314 47.4929 44.2155 46.5807 44.043L24.1746 39.8109C18.6515 38.7717 14.6281 32.7733 15.6768 27.181L19.896 4.69268L19.8969 4.68251Z" fill="#109888"/>
<path d="M21.9859 2.76938C22.5293 -0.111805 25.8885 -0.509891 29.3049 1.51842L44.7212 10.7171C46.9215 12.025 48.9441 14.9951 49.3763 17.539L52.4543 35.5579C53.138 39.5812 51.5549 42.6753 48.6706 42.1197L26.2635 37.8876C20.7404 36.8484 16.717 30.85 17.7657 25.2577L21.9859 2.76938Z" fill="#26C2A3"/>
<path d="M21.9858 2.76874C22.5292 -0.112443 19.4073 23.6503 19.0831 26.2764C18.7589 28.9024 20.3218 35.1219 26.2486 36.2996C32.1754 37.4774 43.4896 39.6325 48.1528 40.4358C52.8159 41.2391 52.4542 35.5583 52.4542 35.5583C53.1379 39.5816 51.5548 42.6757 48.6705 42.1201L26.2634 37.887C20.7403 36.8478 16.7169 30.8503 17.7656 25.2581L21.9858 2.76874Z" fill="#62F6CA"/>
<path d="M33.4499 21.1645C33.2453 21.7447 33.4781 21.9538 33.9862 21.7635L36.6675 20.6783L39.2689 23.6709C39.7111 24.1689 39.8922 24.122 39.7182 23.4642L38.7421 19.8984L40.6025 18.9846C40.906 18.8178 40.8236 18.5618 40.3744 18.3316L37.7777 16.9339L36.6722 13.9741C36.4723 13.4362 36.263 13.3328 36.096 13.6875L35.2069 15.7547L32.0881 14.5637C31.5048 14.3288 31.4154 14.5426 31.8787 15.097L34.3108 18.045L33.4499 21.1622V21.1645ZM48.0586 36.5225C47.607 36.4403 47.1272 36.0785 46.2593 34.7255L42.423 29.0408L44.2341 26.7435L47.8187 31.7046C48.7266 32.8838 49.0088 33.5862 49.1382 34.2721C49.3922 35.6181 48.9124 36.6611 48.0539 36.506V36.5201L48.0586 36.5225ZM37.0744 31.0305C29.5126 29.2499 23.4066 20.3118 24.6014 12.9758C25.5587 7.10791 30.952 5.98272 36.2065 8.96834C40.746 11.5452 44.474 16.8212 45.3278 21.9068C46.3345 27.9109 43.1969 32.4728 37.0744 31.0305ZM36.9074 26.7717C41.2 28.0613 43.6202 25.2213 43.0369 20.9179C42.5195 17.103 39.7464 13.1778 36.303 11.3432C32.4456 9.29016 28.901 10.42 28.5082 14.6577C28.0472 19.6048 31.9799 25.2918 36.9098 26.7717H36.9074Z" fill="white"/>
<defs>
<clipPath id="clip0_12151_170309">
<rect width="35.8365" height="31.7016" fill="white" transform="translate(231.807 78.0161)"/>
</clipPath>
</defs>
</svg>
