<svg width="44" height="48" viewBox="233 4 44 48" fill="none" xmlns="http://www.w3.org/2000/svg">
<path d="M243.156 11.108C244.264 8.57003 247.261 7.03059 250.022 7.62474L272.358 12.0183C272.358 12.0183 273.894 13.867 274.956 15.7753C275.655 17.039 275.909 18.4663 275.554 19.8959L269.792 43.0899C268.625 47.7948 263.59 49.4561 258.965 46.8215L238.722 35.3231C237.935 34.8746 237.298 34.2613 236.806 33.5426C235.533 31.6784 235.18 31.085 235.18 31.085L243.149 11.0964L243.156 11.108Z" fill="#5D9948"/>
<path d="M241.679 8.87275C242.787 6.33476 245.785 4.79647 248.546 5.39062L267.776 9.55672C272.004 10.4739 274.96 14.08 274.075 17.6703L268.315 40.8644C267.147 45.5694 262.111 47.2305 257.486 44.5959L237.244 33.0977C234.442 31.5078 233.42 27.718 234.77 24.6479L241.668 8.8795L241.679 8.87275Z" fill="#81B64C"/>
<path d="M241.678 8.87303C239.867 12.9927 236.852 21.5307 235.804 24.5719C234.755 27.6131 235.659 31.0327 237.798 32.188C239.937 33.3432 252.711 40.8047 258.313 43.4556C263.914 46.1066 267.81 42.8953 268.313 40.8647C267.145 45.5697 262.11 47.2317 257.485 44.5972L237.242 33.098C234.441 31.508 233.419 27.7192 234.768 24.6491L241.666 8.88075L241.678 8.87303Z" fill="#B2E068"/>
<path d="M265.301 25.7399L264.531 25.5936L266.149 18.9088L266.84 19.2014C268.134 19.6926 268.551 20.3279 268.311 21.4282L267.636 24.5217C267.378 25.7006 266.713 26.0587 265.305 25.729V25.7399H265.301ZM257.447 19.2145C258.321 19.4786 259.235 19.0529 259.464 18.2976C259.694 17.5422 259.18 16.6908 258.317 16.4637C257.501 16.2498 256.599 16.6798 256.354 17.4199C256.109 18.16 256.62 18.9656 257.447 19.2145ZM251.647 17.4702C252.371 17.6885 253.226 17.2977 253.473 16.6078C253.72 15.9179 253.3 15.1429 252.583 14.9552C251.853 14.763 251.057 15.1757 250.797 15.8546C250.543 16.5161 250.911 17.2497 251.647 17.4723V17.4702ZM258.207 23.6092L257.779 21.474C254.988 21.7906 251.927 20.7383 250.2 18.9896L248.819 20.2973C250.815 22.4434 254.835 23.941 258.218 23.6135L258.207 23.6092ZM244.224 18.3958C243.5 18.0247 243.371 17.5487 243.73 16.7432L244.679 14.6059C245.02 13.8396 245.463 13.5732 246.268 13.6824L246.729 13.7217L244.62 18.636L244.224 18.3958ZM248.913 27.8619L249.711 25.6635L246.661 24.3733C244.971 23.6572 244.674 22.8232 245.404 21.0593L248.963 12.4598C249.573 10.9862 250.301 10.6129 251.923 10.9556L261.974 13.0798C264.171 13.5448 264.772 14.3111 264.282 16.1581L261.375 27.159C260.765 29.4644 259.727 29.9032 257.342 28.8946L253.562 27.2943L252.793 29.6434L254.448 30.4031C256.725 31.4489 257.495 32.6583 257.431 35.3611V35.2148C253.457 35.5641 245.496 31.3157 243.677 28.3051L243.612 28.3924C244.797 26.7049 245.756 26.4123 247.54 27.231L248.911 27.8598L248.913 27.8619Z" fill="white"/>
</svg>
