<svg width="14" height="14" viewBox="76 44 14 14" fill="none" xmlns="http://www.w3.org/2000/svg">
<path d="M88.3684 53.3613C88.7746 53.7195 88.4565 54.4245 87.9447 54.3004L83.8978 53.3177C83.714 53.2731 83.5225 53.3444 83.4034 53.5018L80.7794 56.9692C80.4475 57.4074 79.7941 57.0642 79.9091 56.512L80.8202 52.1448C80.8615 51.9466 80.7954 51.7399 80.6496 51.6114L77.4359 48.7802C77.0298 48.422 77.3479 47.717 77.8597 47.8411L81.9072 48.8241C82.0909 48.8687 82.2824 48.7974 82.4015 48.64L85.0252 45.1732C85.3572 44.735 86.0105 45.0782 85.8956 45.6304L84.9848 49.997C84.9434 50.1952 85.0095 50.4019 85.1554 50.5304L88.3684 53.3613Z" fill="white" fill-opacity="0.99"/>
</svg>
