<svg width="160" height="135" viewBox="0 0 160 135" fill="none" xmlns="http://www.w3.org/2000/svg">
<path opacity="0.1" d="M32.6523 117.923C62.2998 118.975 85.4277 98.4514 101.346 75.6795C108.99 65.4364 107.197 55.4341 105.74 48.3218C112.449 45.4833 116.303 41.0327 115.898 32.6745C124.14 24.218 121.808 8.10857 111.317 2.56183C101.002 -3.80082 86.2138 2.36031 82.9614 13.6455C75.4273 17.494 73.4646 23.0604 74.484 30.3545C68.8881 32.9595 63.4543 33.977 58.1753 39.8358C56.048 42.1976 54.3874 44.9378 53.1911 47.8844C43.0187 72.9443 33.8732 100.884 10.168 115.163C8.88076 115.939 9.4433 117.923 10.9467 117.923H32.6474H32.6523Z" fill="url(#paint0_linear_10941_23899)"/>
<path d="M79.8392 57.1101C70.4652 51.7919 61.4253 50.2461 59.5534 53.6498C50.5381 70.0369 53.7684 89.6459 57.0257 94.7454C57.3844 95.3082 58.0009 95.6645 58.6691 95.694C64.7121 95.9668 83.3029 88.9602 92.979 72.9541C94.9884 69.629 89.1321 62.5708 79.8392 57.1077V57.1101Z" fill="#F7C631"/>
<path d="M78.8714 58.7886C71.9833 54.8933 65.5031 53.4851 64.297 55.6478C59.8704 63.5931 61.0249 75.1757 62.9926 80.7888C63.6828 82.7622 65.7119 83.932 67.7655 83.5462C73.6071 82.4427 84.2118 77.6554 88.8767 69.8452C90.1467 67.7194 85.6881 62.8067 78.8714 58.7886Z" fill="#FCE26A"/>
<path d="M111.381 31.1458C113.287 39.5237 107.296 44.0284 102.164 44.9132C99.2826 50.3247 107.126 57.5697 99.3268 71.0814C97.315 74.5712 93.8808 76.9108 89.5328 77.7807C84.185 78.8498 77.4493 77.6923 70.2591 73.7036C57.4804 66.0237 53.5082 54.9892 57.9963 47.2085C65.1619 34.7929 75.9901 36.872 79.2278 31.6668C77.3289 26.5576 78.3336 19.3372 86.5383 16.801C88.2554 6.63646 100.295 0.964385 109.202 6.22359C118.207 11.3108 119.315 24.5792 111.376 31.1458H111.381Z" fill="#81B64C"/>
<path opacity="0.3" d="M75.9679 40.0251C78.6774 40.814 80.7826 44.1661 80.9177 47.0661C80.9939 48.457 80.6499 49.821 80.1464 51.1186C79.6403 52.4039 75.7026 58.6044 72.6811 63.2885C70.7232 66.3236 66.4317 66.675 63.9875 64.0159C63.4446 63.4261 62.8968 62.7921 62.3638 62.1211C59.755 58.8452 57.6571 54.51 58.6618 50.401C59.6199 46.6114 66.8764 37.3758 75.9679 40.0251Z" fill="#B2E068"/>
<path opacity="0.3" d="M100.744 28.7399C107.142 28.7399 112.329 23.5509 112.329 17.15C112.329 10.749 107.142 5.56006 100.744 5.56006C94.3461 5.56006 89.1594 10.749 89.1594 17.15C89.1594 23.5509 94.3461 28.7399 100.744 28.7399Z" fill="#B2E068"/>
<path d="M104.007 14.871C105.249 12.7176 104.512 9.96406 102.359 8.7208C100.207 7.47753 97.4545 8.21533 96.2118 10.3687C94.9691 12.5221 95.7066 15.2757 97.859 16.519C100.012 17.7622 102.764 17.0244 104.007 14.871Z" fill="#B2E068"/>
<path d="M94.1412 32.0403C89.8743 29.5754 87.3416 25.1272 86.784 20.0867C84.8532 24.9871 88.0516 30.9885 93.08 33.9081C98.2878 36.9309 105.436 36.6851 108.617 32.2295C103.773 34.5028 98.5482 34.5642 94.1388 32.0403H94.1412Z" fill="#5D9948"/>
<path d="M101.734 45.9846C104.345 45.4636 106.591 44.2471 108.055 42.254C101.83 44.7313 94.9492 44.4462 88.9701 41.0203C83.1777 37.6756 79.5347 31.9961 78.4514 25.7195C76.2455 31.6521 82.2197 40.0717 87.5871 43.4951C94.1067 47.6509 94.7454 54.5665 95.0672 56.7807C96.4723 66.5103 90.3581 76.8493 89.5327 77.7832C93.8807 76.9156 97.3149 74.5736 99.3267 71.0838C106.623 58.4445 100.228 51.2881 101.734 45.9871V45.9846Z" fill="#5D9948"/>
<path d="M64.7613 57.636C67.9425 59.3957 70.5537 56.8005 72.3544 54.1635C77.2231 47.039 75.7345 40.5903 67.2399 44.0113C61.2043 46.4418 59.7648 54.3626 64.7613 57.636Z" fill="#B2E068"/>
<path d="M41.8984 17.9483C41.9269 17.5132 42.4736 17.3379 42.7498 17.6753L44.7705 20.144C44.8548 20.247 44.9781 20.3104 45.1109 20.3191L48.2944 20.5276C48.7295 20.556 48.9048 21.1027 48.5673 21.3789L46.0987 23.3996C45.9957 23.4839 45.9322 23.6072 45.9235 23.7401L45.7151 26.9235C45.6866 27.3586 45.14 27.5339 44.8638 27.1965L42.8431 24.7278C42.7587 24.6248 42.6355 24.5614 42.5026 24.5527L39.3192 24.3442C38.8841 24.3158 38.7088 23.7691 39.0462 23.4929L41.5149 21.4722C41.6179 21.3879 41.6813 21.2646 41.69 21.1317L41.8984 17.9483Z" fill="white"/>
<path d="M125.814 60.0699C125.993 59.8461 126.353 59.957 126.375 60.2425L126.537 62.3316C126.544 62.4188 126.586 62.4992 126.655 62.5538L128.292 63.8617C128.516 64.0405 128.405 64.4008 128.119 64.4229L126.03 64.5846C125.943 64.5914 125.862 64.634 125.808 64.7023L124.5 66.3394C124.321 66.5631 123.961 66.4523 123.939 66.1667L123.777 64.0776C123.77 63.9904 123.728 63.91 123.659 63.8554L122.022 62.5475C121.799 62.3688 121.909 62.0084 122.195 61.9863L124.284 61.8246C124.371 61.8178 124.452 61.7752 124.506 61.7069L125.814 60.0699Z" fill="white"/>
<path d="M23.0999 53.1068C23.2086 52.9708 23.4277 53.0382 23.4411 53.2117L23.5394 54.4817C23.5435 54.5347 23.5694 54.5836 23.6109 54.6168L24.6061 55.4118C24.7421 55.5205 24.6747 55.7396 24.5011 55.753L23.2312 55.8513C23.1782 55.8554 23.1293 55.8813 23.0961 55.9228L22.301 56.918C22.1924 57.054 21.9733 56.9866 21.9599 56.813L21.8616 55.5431C21.8575 55.4901 21.8316 55.4412 21.7901 55.408L20.7949 54.6129C20.6589 54.5043 20.7263 54.2852 20.8998 54.2718L22.1698 54.1735C22.2228 54.1694 22.2717 54.1435 22.3049 54.1019L23.0999 53.1068Z" fill="white"/>
<path d="M2.25256 25.8306C2.24333 25.6738 2.43083 25.5868 2.54456 25.6951L3.37674 26.487C3.41147 26.52 3.45834 26.5372 3.5062 26.5343L4.65296 26.4668C4.80969 26.4575 4.89671 26.645 4.78848 26.7588L3.99657 27.591C3.96353 27.6257 3.94637 27.6726 3.94919 27.7204L4.01676 28.8672C4.026 29.0239 3.8385 29.1109 3.72476 29.0027L2.89259 28.2108C2.85786 28.1777 2.81098 28.1606 2.76313 28.1634L1.61637 28.231C1.45963 28.2402 1.37261 28.0527 1.48085 27.939L2.27275 27.1068C2.3058 27.0721 2.32296 27.0252 2.32014 26.9773L2.25256 25.8306Z" fill="white"/>
<path d="M157.26 33.7221C157.379 33.5731 157.619 33.6469 157.634 33.837L157.742 35.2278C157.746 35.2858 157.775 35.3394 157.82 35.3757L158.91 36.2464C159.059 36.3654 158.985 36.6053 158.795 36.6201L157.404 36.7277C157.346 36.7322 157.293 36.7606 157.256 36.806L156.386 37.8959C156.267 38.0448 156.027 37.971 156.012 37.781L155.904 36.3902C155.9 36.3321 155.871 36.2786 155.826 36.2422L154.736 35.3715C154.587 35.2525 154.661 35.0126 154.851 34.9979L156.242 34.8903C156.3 34.8858 156.353 34.8574 156.39 34.8119L157.26 33.7221Z" fill="white"/>
<g opacity="0.08" filter="url(#filter0_f_10941_23899)">
<circle cx="68.6957" cy="77.3913" r="17.3913" fill="#F7C631"/>
</g>
<defs>
<filter id="filter0_f_10941_23899" x="11.3044" y="20" width="114.783" height="114.783" filterUnits="userSpaceOnUse" color-interpolation-filters="sRGB">
<feFlood flood-opacity="0" result="BackgroundImageFix"/>
<feBlend mode="normal" in="SourceGraphic" in2="BackgroundImageFix" result="shape"/>
<feGaussianBlur stdDeviation="20" result="effect1_foregroundBlur_10941_23899"/>
</filter>
<linearGradient id="paint0_linear_10941_23899" x1="65.1608" y1="0" x2="65.1608" y2="117.962" gradientUnits="userSpaceOnUse">
<stop offset="0.802885" stop-color="#B2E068"/>
<stop offset="1" stop-color="#B2E068" stop-opacity="0"/>
</linearGradient>
</defs>
</svg>
