<svg width="128" height="128" viewBox="0 0 128 128" fill="none" xmlns="http://www.w3.org/2000/svg">
<path d="M17 109C17 109 25.1101 128.137 64.3321 127.999C103.554 127.862 111 109 111 109" fill="#1E1E1E"/>
<path d="M15.5 95.5H112L111 109H17L15.5 95.5Z" fill="#1E1E1E"/>
<path d="M26.3964 82.0479L18.5742 70.0159L34.7875 7.82212C34.7875 7.82212 37.3191 1.20879 39.5236 8.16345L50.4889 41.6568H77.4542L85.2622 12.3448C85.2622 12.3448 87.5804 -3.4561 91.9182 11.8612L109.611 72.1492L101.547 82.0479H26.3964Z" fill="#486688"/>
<path d="M63.5591 118.741C28.9138 118.741 20.096 98.0054 19.0293 95.0329L9.57153 23.8792L27.7333 58.5245C27.9324 58.9654 28.1884 59.3636 28.5155 59.7192L36.5938 68.5938C37.3475 69.4187 38.3573 69.8738 39.4098 69.8738C39.6658 69.8738 39.9218 69.8454 40.192 69.7885C41.5004 69.5041 42.5813 68.5369 43.0791 67.2001L63.6586 19.4561L84.224 67.2001C84.7218 68.5369 85.8026 69.5041 87.1111 69.7885C87.3671 69.8454 87.6231 69.8738 87.8933 69.8738C88.9458 69.8738 89.9555 69.4187 90.7093 68.5938L98.7875 59.7192C99.1004 59.3778 99.3706 58.9654 99.5555 58.5245L118.628 21.7885L108.274 95.0614C107.392 97.7067 99.2 118.571 63.9715 118.727H63.5733L63.5591 118.741Z" fill="#80A6C5"/>
<path d="M8.0213 17.0096C7.7653 17.7491 7.58042 18.6878 7.69419 19.3704L17.8346 95.7295C18.0622 96.3127 26.0977 120.348 63.5591 120.348V123.036L63.9715 120.348C101.973 120.163 109.468 95.5873 109.54 95.3456L120.277 19.1287C120.405 18.3891 120.277 17.7776 119.979 17.422C119.438 17.2087 118.741 17.55 118.101 19.1287L97.9342 58.5242L87.04 70.4709L63.8862 16.3127C63.8009 16.0993 63.7155 15.9002 63.6444 15.7153C63.5875 15.8576 63.5306 15.9856 63.488 16.1136L40.2346 70.4567L28.9422 57.9269L8.31997 17.6353C8.20619 17.3936 8.10664 17.1944 8.0213 17.0096Z" fill="#AED0F0"/>
<path d="M95.9573 56.7042L87.8791 65.5646L66.3324 15.218C66.3324 15.218 66.1475 14.706 65.8346 14.0802C65.8204 14.0517 65.792 14.0233 65.7778 13.9806C65.6924 13.8242 65.6071 13.6677 65.5075 13.4971C64.8533 12.402 64.2133 11.9895 63.6444 12.018C63.0613 11.9895 62.4355 12.402 61.7813 13.4971C61.6818 13.6535 61.5822 13.81 61.5111 13.9806C61.4826 14.0091 61.4684 14.0375 61.4542 14.0802C61.1413 14.6917 60.9564 15.218 60.9564 15.218L39.4098 65.5646L31.3315 56.7042L9.57153 23.8793C13.312 44.5158 27.1929 106.823 40.3911 116.082C44.8 117.006 57.216 118.03 63.3031 118.073C63.4026 118.073 63.5306 118.073 63.6444 118.073C63.744 118.073 63.8862 118.073 63.9858 118.073C70.0729 118.016 82.4746 116.992 86.8978 116.068C100.096 106.809 113.977 44.5158 117.703 23.8651L95.9573 56.69V56.7042Z" fill="#D0E6FB"/>
<path d="M86.6133 65.7065L66.2755 16.8959C63.5164 9.6141 61.0133 16.8532 61.0133 16.8532L40.6755 65.6923C40.6755 66.2043 40.6471 66.7021 40.6471 67.2141C40.6471 91.1501 44.8711 108.117 51.2569 120.149C55.0827 120.818 59.2924 121.216 63.9715 121.187C68.4089 121.173 72.3911 120.761 76.0462 120.135C82.4178 108.089 86.6418 91.1217 86.6418 67.2141C86.6418 66.7163 86.6133 66.2185 86.6133 65.7065Z" fill="white"/>
<path d="M63.6444 20.679L83.6409 67.399L86.4711 73.9981L91.3066 68.6933L99.3849 59.8328L99.7973 59.3777L100.082 58.823L117.575 24.5048L107.605 95.0612C106.667 97.7919 98.4889 118.258 63.9715 118.428H63.5591C29.4542 118.428 20.7502 97.9057 19.6978 95.047L10.5671 26.2684L27.2071 58.8088L27.4915 59.3635L27.904 59.8186L35.9822 68.679L40.8178 73.9981L43.648 67.3848L63.6302 20.6648M63.6729 12.0035C62.08 12.0035 60.9422 15.2177 60.9422 15.2177L39.3955 65.5644L31.3173 56.7039L10.7093 16.4124C9.7422 14.279 8.78931 13.4826 7.92175 13.4826C6.01598 13.4826 4.65064 17.4506 5.03464 19.8115L15.1466 96.0852C15.1466 96.0852 23.4524 123.036 63.5306 123.036C63.6729 123.036 63.8151 123.036 63.9573 123.036C104.405 122.837 112.1 96.0852 112.1 96.0852L122.923 19.5128C123.406 16.6826 121.657 14.5208 119.623 14.5208C118.215 14.5208 116.651 15.559 115.612 18.1048L95.9431 56.7039L87.8649 65.5644L66.3324 15.2461C65.3795 12.8141 64.4693 11.9893 63.6586 11.9893L63.6729 12.0035Z" fill="#749BBF"/>
<path d="M20.4231 81.9482C20.4231 81.9482 27.8898 95.7865 64 95.6869C100.11 95.5874 106.965 81.9482 106.965 81.9482" stroke="#AED0F0" stroke-width="3.32" stroke-miterlimit="10" stroke-linecap="round"/>
</svg>
