<svg width="1562" height="424" viewBox="0 0 1562 424" fill="none" xmlns="http://www.w3.org/2000/svg">
<path d="M184.5 0C238.137 0 286.425 22.89 320.137 59.4316C333.128 56.5323 346.635 55 360.5 55C435.517 55 500.075 99.7725 528.916 164.053C542.918 156.983 558.744 153 575.5 153C619.592 153 657.242 180.571 672.155 219.413C678.698 217.199 685.709 216 693 216C719.008 216 741.448 231.275 751.839 253.343C754.195 253.116 756.584 253 759 253C770.785 253 781.927 255.755 791.816 260.656C801.223 241.324 821.055 228 844 228C852.292 228 860.178 229.74 867.312 232.875C885.372 198.469 921.445 175 963 175C977.444 175 991.227 177.835 1003.82 182.98C1027.69 108.732 1097.32 55 1179.5 55C1203.15 55 1225.75 59.4506 1246.53 67.5557C1279.96 33.8651 1326.29 13 1377.5 13C1479.4 13 1562 95.6035 1562 197.5C1562 299.397 1479.4 382 1377.5 382C1353.85 382 1331.25 377.549 1310.47 369.443C1277.04 403.134 1230.71 424 1179.5 424C1123.39 424 1073.14 398.953 1039.3 359.434C1019.76 378.938 992.789 391 963 391C923.388 391 888.757 369.674 869.962 337.878C862.151 341.795 853.333 344 844 344C839.655 344 835.421 343.521 831.349 342.615C824.181 375.985 794.512 401 759 401C724.613 401 695.706 377.545 687.4 345.761C672.771 344.512 659.524 338.42 649.271 329.092C630.497 348.169 604.381 360 575.5 360C552.892 360 531.979 352.75 514.954 340.45C482.003 390.763 425.134 424 360.5 424C306.863 424 258.574 401.11 224.862 364.567C211.871 367.467 198.365 369 184.5 369C82.6035 369 0 286.397 0 184.5C0 82.6035 82.6035 0 184.5 0Z" fill="#312E2B"/>
</svg>
