<svg width="1342" height="261" viewBox="0 0 1342 261" fill="none" xmlns="http://www.w3.org/2000/svg">
<g clip-path="url(#clip0_10941_23842)">
<path d="M91.5 -0.5C145.137 -0.5 193.425 22.39 227.137 58.9316C240.128 56.0323 253.635 54.5 267.5 54.5C342.517 54.5 407.075 99.2725 435.916 163.553C449.918 156.483 465.744 152.5 482.5 152.5C526.592 152.5 564.242 180.071 579.155 218.913C585.698 216.699 592.709 215.5 600 215.5C626.008 215.5 648.448 230.775 658.839 252.843C661.195 252.616 663.584 252.5 666 252.5C677.785 252.5 688.927 255.255 698.816 260.156C708.223 240.824 728.055 227.5 751 227.5C759.292 227.5 767.178 229.24 774.312 232.375C792.372 197.969 828.445 174.5 870 174.5C884.444 174.5 898.227 177.335 910.82 182.48C934.689 108.232 1004.32 54.5 1086.5 54.5C1110.15 54.5 1132.75 58.9506 1153.53 67.0557C1186.96 33.3651 1233.29 12.5 1284.5 12.5C1386.4 12.5 1469 95.1035 1469 197C1469 298.897 1386.4 381.5 1284.5 381.5C1260.85 381.5 1238.25 377.049 1217.47 368.943C1184.04 402.634 1137.71 423.5 1086.5 423.5C1030.39 423.5 980.139 398.453 946.3 358.934C926.761 378.438 899.789 390.5 870 390.5C830.388 390.5 795.757 369.174 776.962 337.378C769.151 341.295 760.333 343.5 751 343.5C746.655 343.5 742.421 343.021 738.349 342.115C731.181 375.485 701.512 400.5 666 400.5C631.613 400.5 602.706 377.045 594.4 345.261C579.771 344.012 566.524 337.92 556.271 328.592C537.497 347.669 511.381 359.5 482.5 359.5C459.892 359.5 438.979 352.25 421.954 339.95C389.003 390.263 332.134 423.5 267.5 423.5C213.863 423.5 165.574 400.61 131.862 364.067C118.871 366.967 105.365 368.5 91.5 368.5C-10.3965 368.5 -93 285.897 -93 184C-93 82.1035 -10.3965 -0.5 91.5 -0.5Z" fill="#312E2B"/>
</g>
<defs>
<clipPath id="clip0_10941_23842">
<rect width="1342" height="261" fill="white"/>
</clipPath>
</defs>
</svg>
