<svg width="160" height="120" viewBox="30 28 185 140" fill="none" xmlns="http://www.w3.org/2000/svg">
<path opacity="0.1" d="M88.3199 162.299C117.973 163.351 141.105 142.824 157.026 120.049C164.672 109.804 162.878 99.7995 161.421 92.686C168.131 89.847 171.986 85.3956 171.58 77.0359C179.823 68.5779 177.492 52.4657 166.998 46.918C156.682 40.5542 141.891 46.7164 138.638 58.0036C131.102 61.8528 129.139 67.4202 130.159 74.7156C124.562 77.3211 119.127 78.3387 113.847 84.1986C111.72 86.5607 110.059 89.3014 108.862 92.2485C98.6882 117.313 89.541 145.258 65.8316 159.539C64.5442 160.316 65.1069 162.299 66.6105 162.299H88.315H88.3199Z" fill="url(#paint0_linear_10928_17772)"/>
<path d="M135.515 101.476C126.14 96.1567 117.098 94.6107 115.226 98.015C106.209 114.405 109.44 134.017 112.698 139.118C113.056 139.681 113.673 140.037 114.341 140.067C120.385 140.339 138.979 133.332 148.657 117.323C150.667 113.997 144.81 106.938 135.515 101.473V101.476Z" fill="#F7C631"/>
<path d="M134.547 103.155C127.658 99.2587 121.177 97.8502 119.97 100.013C115.543 107.96 116.698 119.545 118.666 125.159C119.356 127.132 121.385 128.302 123.439 127.917C129.282 126.813 139.889 122.025 144.554 114.213C145.824 112.087 141.365 107.173 134.547 103.155Z" fill="#FCE26A"/>
<path d="M167.062 75.507C168.969 83.8864 162.977 88.3919 157.844 89.2768C154.962 94.6893 162.807 101.935 155.006 115.45C152.994 118.94 149.559 121.28 145.21 122.15C139.862 123.219 133.125 122.062 125.933 118.072C113.152 110.391 109.18 99.3546 113.668 91.5725C120.835 79.1547 131.665 81.2342 134.904 76.0281C133.004 70.9179 134.009 63.6963 142.215 61.1596C143.933 50.9933 155.974 45.3203 164.883 50.5804C173.89 55.6685 174.998 68.9392 167.057 75.507H167.062Z" fill="#81B64C"/>
<path opacity="0.3" d="M131.643 84.3879C134.353 85.1769 136.459 88.5296 136.594 91.43C136.67 92.8213 136.326 94.1855 135.822 95.4833C135.316 96.7688 131.378 102.97 128.356 107.655C126.398 110.691 122.105 111.042 119.661 108.383C119.118 107.793 118.57 107.159 118.037 106.488C115.427 103.211 113.329 98.8753 114.334 94.7656C115.292 90.9753 122.55 81.7381 131.643 84.3879Z" fill="#B2E068"/>
<path opacity="0.3" d="M156.424 73.1006C162.823 73.1006 168.011 67.9108 168.011 61.5087C168.011 55.1066 162.823 49.9167 156.424 49.9167C150.025 49.9167 144.837 55.1066 144.837 61.5087C144.837 67.9108 150.025 73.1006 156.424 73.1006Z" fill="#B2E068"/>
<path d="M159.687 59.2293C160.93 57.0755 160.192 54.3215 158.039 53.078C155.886 51.8345 153.134 52.5725 151.891 54.7263C150.648 56.88 151.385 59.6341 153.538 60.8776C155.691 62.1211 158.444 61.3831 159.687 59.2293Z" fill="#B2E068"/>
<path d="M149.82 76.4016C145.552 73.9363 143.019 69.4873 142.461 64.4459C140.53 69.3472 143.729 75.3496 148.758 78.2697C153.967 81.2931 161.117 81.0473 164.298 76.5909C159.453 78.8646 154.227 78.926 149.817 76.4016H149.82Z" fill="#5D9948"/>
<path d="M157.414 90.3484C160.026 89.8273 162.271 88.6106 163.736 86.6172C157.51 89.0948 150.628 88.8097 144.648 85.3833C138.854 82.0379 135.211 76.3575 134.127 70.0797C131.921 76.0133 137.896 84.4345 143.264 87.8585C149.785 92.015 150.424 98.9318 150.746 101.146C152.151 110.878 146.036 121.219 145.21 122.153C149.559 121.285 152.994 118.942 155.006 115.452C162.303 102.811 155.908 95.6528 157.414 90.3509V90.3484Z" fill="#5D9948"/>
<path d="M120.435 102.002C123.616 103.762 126.228 101.166 128.029 98.5287C132.899 91.403 131.41 84.9532 122.914 88.3747C116.877 90.8057 115.437 98.7278 120.435 102.002Z" fill="#B2E068"/>
<g filter="url(#filter0_d_10928_17772)">
<path d="M97.3264 62.704C97.3504 62.2686 97.8953 62.0876 98.175 62.4222L100.222 64.8703C100.307 64.9725 100.431 65.0346 100.564 65.0419L103.75 65.2175C104.185 65.2415 104.366 65.7864 104.032 66.0661L101.583 68.1126C101.481 68.198 101.419 68.322 101.412 68.4549L101.236 71.6409C101.212 72.0763 100.667 72.2573 100.388 71.9227L98.3412 69.4746C98.2558 69.3724 98.1318 69.3103 97.9989 69.3029L94.8129 69.1274C94.3775 69.1034 94.1965 68.5585 94.5311 68.2788L96.9792 66.2323C97.0814 66.1469 97.1435 66.0229 97.1508 65.89L97.3264 62.704Z" fill="white"/>
<path d="M181.688 103.964C181.864 103.738 182.226 103.845 182.251 104.131L182.434 106.218C182.442 106.305 182.485 106.386 182.554 106.439L184.205 107.731C184.43 107.907 184.323 108.269 184.038 108.294L181.95 108.477C181.863 108.485 181.783 108.528 181.729 108.597L180.438 110.248C180.262 110.473 179.9 110.366 179.875 110.081L179.692 107.993C179.684 107.906 179.641 107.826 179.572 107.772L177.921 106.481C177.695 106.304 177.802 105.943 178.088 105.918L180.175 105.735C180.263 105.727 180.343 105.683 180.396 105.615L181.688 103.964Z" fill="white"/>
<path d="M78.8888 98.061C78.9961 97.9239 79.2159 97.989 79.2311 98.1625L79.3425 99.4316C79.3472 99.4845 79.3736 99.5332 79.4155 99.5659L80.4189 100.351C80.5561 100.458 80.491 100.678 80.3175 100.693L79.0484 100.805C78.9955 100.809 78.9468 100.836 78.9141 100.877L78.1292 101.881C78.0219 102.018 77.8021 101.953 77.7869 101.779L77.6755 100.51C77.6708 100.457 77.6444 100.409 77.6025 100.376L76.5991 99.5912C76.4619 99.4839 76.527 99.2641 76.7005 99.2489L77.9696 99.1375C78.0225 99.1328 78.0712 99.1064 78.1039 99.0645L78.8888 98.061Z" fill="white"/>
<path d="M57.757 70.9969C57.7462 70.8403 57.9328 70.7513 58.0477 70.8584L58.8881 71.6418C58.9232 71.6745 58.9703 71.6912 59.0181 71.6878L60.1643 71.6084C60.321 71.5976 60.4099 71.7842 60.3028 71.8991L59.5194 72.7395C59.4868 72.7746 59.4701 72.8216 59.4734 72.8695L59.5528 74.0157C59.5637 74.1723 59.3771 74.2613 59.2622 74.1542L58.4217 73.3708C58.3867 73.3381 58.3396 73.3215 58.2918 73.3248L57.1456 73.4042C56.9889 73.4151 56.8999 73.2284 57.007 73.1136L57.7904 72.2731C57.8231 72.238 57.8398 72.191 57.8365 72.1431L57.757 70.9969Z" fill="white"/>
<path d="M212.865 77.2879C212.983 77.1377 213.224 77.209 213.24 77.399L213.362 78.7888C213.367 78.8468 213.396 78.9001 213.442 78.936L214.541 79.7955C214.691 79.913 214.62 80.1537 214.43 80.1704L213.04 80.2924C212.982 80.2975 212.929 80.3264 212.893 80.3723L212.034 81.4713C211.916 81.6215 211.675 81.5501 211.659 81.3602L211.537 79.9703C211.532 79.9123 211.503 79.8591 211.457 79.8232L210.358 78.9636C210.208 78.8462 210.279 78.6054 210.469 78.5888L211.859 78.4667C211.917 78.4616 211.97 78.4327 212.006 78.3869L212.865 77.2879Z" fill="white"/>
</g>
<g opacity="0.08" filter="url(#filter1_f_10928_17772)">
<circle cx="123.5" cy="123.5" r="43.4859" fill="#F7C631"/>
</g>
<defs>
<filter id="filter0_d_10928_17772" x="39.8192" y="45.108" width="191.944" height="82.4022" filterUnits="userSpaceOnUse" color-interpolation-filters="sRGB">
<feFlood flood-opacity="0" result="BackgroundImageFix"/>
<feColorMatrix in="SourceAlpha" type="matrix" values="0 0 0 0 0 0 0 0 0 0 0 0 0 0 0 0 0 0 127 0" result="hardAlpha"/>
<feOffset/>
<feGaussianBlur stdDeviation="8.56898"/>
<feComposite in2="hardAlpha" operator="out"/>
<feColorMatrix type="matrix" values="0 0 0 0 1 0 0 0 0 1 0 0 0 0 1 0 0 0 0.32 0"/>
<feBlend mode="normal" in2="BackgroundImageFix" result="effect1_dropShadow_10928_17772"/>
<feBlend mode="normal" in="SourceGraphic" in2="effect1_dropShadow_10928_17772" result="shape"/>
</filter>
<filter id="filter1_f_10928_17772" x="0" y="0" width="247" height="247" filterUnits="userSpaceOnUse" color-interpolation-filters="sRGB">
<feFlood flood-opacity="0" result="BackgroundImageFix"/>
<feBlend mode="normal" in="SourceGraphic" in2="BackgroundImageFix" result="shape"/>
<feGaussianBlur stdDeviation="40" result="effect1_foregroundBlur_10928_17772"/>
</filter>
<linearGradient id="paint0_linear_10928_17772" x1="120.834" y1="44.3557" x2="120.834" y2="162.338" gradientUnits="userSpaceOnUse">
<stop offset="0.802885" stop-color="#B2E068"/>
<stop offset="1" stop-color="#B2E068" stop-opacity="0"/>
</linearGradient>
</defs>
</svg>
