<svg width="74" height="32" viewBox="0 0 74 32" fill="none" xmlns="http://www.w3.org/2000/svg">
<rect width="74" height="32" fill="black" fill-opacity="0.14"/>
<path d="M37.0001 24C41.1238 24 44.4668 20.657 44.4668 16.5333C44.4668 12.4096 41.1238 9.06665 37.0001 9.06665C32.8764 9.06665 29.5334 12.4096 29.5334 16.5333C29.5334 20.657 32.8764 24 37.0001 24Z" fill="#0B548C"/>
<path d="M37.0001 23.4667C41.1238 23.4667 44.4667 20.1238 44.4667 16.0001C44.4667 11.8764 41.1238 8.53345 37.0001 8.53345C32.8764 8.53345 29.5334 11.8764 29.5334 16.0001C29.5334 20.1238 32.8764 23.4667 37.0001 23.4667Z" fill="#009FD9"/>
<path opacity="0.2" d="M33.5571 22.627C34.5873 23.1633 35.7583 23.4664 37 23.4664C41.1237 23.4664 44.4666 20.1235 44.4666 15.9998C44.4666 14.8789 44.2196 13.8157 43.777 12.8616C42.2335 17.6018 38.3932 21.2931 33.5571 22.627Z" fill="#4DC3EA"/>
<path d="M36.5645 8.5459C33.3313 9.20739 30.7402 11.5209 29.6731 14.5541C30.3193 11.2606 33.1311 8.74326 36.5645 8.5459Z" fill="#4DC3EA"/>
<path d="M36.9998 23.4666C40.9536 22.9791 44.0763 19.8096 44.4649 15.8463C44.4659 15.8974 44.4665 15.9487 44.4665 16C44.4665 20.1237 41.1235 23.4666 36.9998 23.4666Z" fill="#4DC3EA"/>
<g filter="url(#filter0_d_10928_17662)">
<path d="M41.3614 14.6729L35.9901 20.0441C35.644 20.3902 35.388 20.376 35.042 20.0441L32.6242 17.6121C32.0885 17.0764 32.0885 16.8536 32.6242 16.3179L32.6716 16.2705C33.2073 15.7348 33.4301 15.7348 33.9658 16.2705L35.5303 17.8349L40.0197 13.3312C40.5554 12.7955 40.7783 12.7955 41.314 13.3312L41.3614 13.3786C41.8971 13.9143 41.8971 14.1371 41.3614 14.6729Z" fill="white"/>
</g>
<defs>
<filter id="filter0_d_10928_17662" x="31.311" y="10.8945" width="11.3777" height="12.3777" filterUnits="userSpaceOnUse" color-interpolation-filters="sRGB">
<feFlood flood-opacity="0" result="BackgroundImageFix"/>
<feColorMatrix in="SourceAlpha" type="matrix" values="0 0 0 0 0 0 0 0 0 0 0 0 0 0 0 0 0 0 127 0" result="hardAlpha"/>
<feOffset dy="1"/>
<feComposite in2="hardAlpha" operator="out"/>
<feColorMatrix type="matrix" values="0 0 0 0 0 0 0 0 0 0 0 0 0 0 0 0 0 0 0.2 0"/>
<feBlend mode="normal" in2="BackgroundImageFix" result="effect1_dropShadow_10928_17662"/>
<feBlend mode="normal" in="SourceGraphic" in2="effect1_dropShadow_10928_17662" result="shape"/>
</filter>
</defs>
</svg>
