<svg width="278" height="207" viewBox="0 0 278 207" fill="none" xmlns="http://www.w3.org/2000/svg">
<g opacity="0.8">
<path d="M138.801 0C90.252 0 50.8341 39.4179 50.8341 87.9667C50.8341 136.516 90.252 175.933 138.801 175.933C187.35 175.933 226.768 136.516 226.768 87.9667C226.768 39.4179 187.35 0 138.801 0Z" fill="url(#paint0_radial_11658_34388)"/>
</g>
<g opacity="0.2" filter="url(#filter0_f_11658_34388)">
<path d="M143.976 169.975C143.976 170.445 143.649 170.852 143.19 170.952L139.658 171.724C139.518 171.754 139.373 171.754 139.232 171.724L135.719 170.958C135.259 170.858 134.932 170.451 134.932 169.981L134.932 169.483C134.932 169.013 135.26 168.606 135.719 168.506L139.241 167.741C139.381 167.71 139.526 167.71 139.667 167.741L143.189 168.509C143.649 168.609 143.976 169.016 143.976 169.486L143.976 169.975Z" fill="#009FD9"/>
</g>
<path d="M151.181 36.9464C154.882 36.9465 158.536 37.7742 161.875 39.3694L171.13 43.7914C173.185 44.773 175.117 45.9928 176.886 47.4272L202.749 68.4021C206.228 71.2238 206.828 76.3037 204.103 79.8588L145.562 156.218C144.153 158.313 141.999 159.495 139.424 159.495C136.849 159.495 134.747 158.282 133.364 156.332L74.8703 79.9611C72.1578 76.4196 72.7425 71.3651 76.1921 68.5367L101.895 47.4622C103.718 45.9671 105.718 44.7005 107.848 43.6904L117.029 39.3385C120.351 37.7637 123.981 36.9465 127.658 36.9464H151.181Z" fill="#4DC3EA"/>
<g opacity="0.5" filter="url(#filter1_f_11658_34388)">
<path d="M151.181 36.9464C154.882 36.9465 158.536 37.7742 161.875 39.3694L171.13 43.7914C173.185 44.773 175.117 45.9928 176.886 47.4272L202.749 68.4021C206.228 71.2238 206.828 76.3037 204.103 79.8588L145.562 156.218C144.153 158.313 141.999 159.495 139.424 159.495C136.849 159.495 134.747 158.282 133.364 156.332L74.8703 79.9611C72.1578 76.4196 72.7425 71.3651 76.1921 68.5367L101.895 47.4622C103.718 45.9671 105.718 44.7005 107.848 43.6904L117.029 39.3385C120.351 37.7637 123.981 36.9465 127.658 36.9464H151.181Z" fill="#4DC3EA"/>
</g>
<g opacity="0.3" filter="url(#filter2_f_11658_34388)">
<path d="M139.432 173.666C139.432 173.666 168.831 202.341 139.432 202.342C110.033 202.342 139.432 173.666 139.432 173.666Z" fill="url(#paint1_radial_11658_34388)"/>
<path d="M132.522 171.847C132.522 171.847 92.7446 197.791 78.0452 186.185C63.3462 174.579 132.522 171.847 132.522 171.847Z" fill="url(#paint2_radial_11658_34388)"/>
<path d="M146.342 171.847C146.342 171.847 215.518 174.579 200.818 186.185C186.119 197.791 146.342 171.847 146.342 171.847Z" fill="url(#paint3_radial_11658_34388)"/>
<path d="M78.0452 153.872C92.7408 142.269 132.501 168.197 132.522 168.21C132.522 168.21 63.3457 165.479 78.0452 153.872Z" fill="url(#paint4_radial_11658_34388)"/>
<path d="M146.342 168.21C146.342 168.21 186.119 142.266 200.818 153.872C215.518 165.479 146.342 168.21 146.342 168.21Z" fill="url(#paint5_radial_11658_34388)"/>
</g>
<path d="M153.167 38.1433C155.242 38.1433 157.254 38.8605 158.861 40.1735L170.446 49.6379C171.425 50.4376 171.426 51.9333 170.448 52.7342L158.966 62.1387C157.358 63.4562 155.343 64.1762 153.263 64.1762H125.671C123.587 64.1762 121.569 63.4535 119.959 62.1315L108.484 52.7086C107.508 51.9076 107.509 50.4145 108.486 49.6151L120.016 40.1787C121.624 38.8625 123.638 38.1433 125.716 38.1433H153.167Z" fill="#B2F0FF"/>
<path d="M153.167 38.1433C155.242 38.1433 157.254 38.8605 158.861 40.1735L170.446 49.6379C171.425 50.4376 171.426 51.9333 170.448 52.7342L158.966 62.1387C157.358 63.4562 155.343 64.1762 153.263 64.1762H125.671C123.587 64.1762 121.569 63.4535 119.959 62.1315L108.484 52.7086C107.508 51.9076 107.509 50.4145 108.486 49.6151L120.016 40.1787C121.624 38.8625 123.638 38.1433 125.716 38.1433H153.167Z" fill="#B2F0FF"/>
<path d="M168.722 103.147C170.248 103.147 171.212 104.789 170.468 106.122L143.063 155.233C141.684 157.625 137.246 158.111 135.556 155.233L108.119 106.123C107.374 104.79 108.338 103.147 109.865 103.147H168.722Z" fill="#009FD9"/>
<path d="M162.76 103.147C166.959 103.147 169.609 107.662 167.563 111.328L143.063 155.233C141.684 157.625 137.246 158.111 135.556 155.233L111.028 111.33C108.98 107.664 111.63 103.147 115.83 103.147H162.76Z" fill="#009FD9"/>
<path d="M125.714 129.619C124.627 127.735 125.02 125.575 127.112 124.978C129.38 124.33 133.182 123.724 139.469 123.724C145.756 123.724 149.558 124.33 151.826 124.978C153.918 125.575 154.311 127.735 153.224 129.619L142.344 148.47C141.664 149.592 141.134 150.389 140.69 150.895C140.059 151.614 138.88 151.614 138.248 150.895C137.804 150.389 137.274 149.592 136.594 148.47L125.714 129.619Z" fill="#008CD1"/>
<path d="M123.414 66.6488C121.951 66.6488 121.338 67.9697 122.607 68.6995C125.003 70.0773 129.714 71.6425 138.756 71.6425C147.501 71.6425 152.509 70.1786 155.264 68.836C156.709 68.1319 156.135 66.6488 154.528 66.6488L123.414 66.6488Z" fill="#83DEFC"/>
<path d="M118.129 63.6542C119.563 64.8231 120.008 66.8225 119.206 68.4893L105.109 97.7804C104.547 98.9463 103.044 99.2806 102.041 98.4624L75.6038 76.8791C73.7651 75.3781 73.9112 72.528 75.9032 71.2374C82.6217 66.8841 96.0031 58.2141 102.185 54.2112C103.642 53.268 105.528 53.3803 106.873 54.4769L118.129 63.6542Z" fill="#CEF5FF"/>
<path d="M202.89 70.968C204.893 72.2516 205.059 75.1166 203.218 76.6235L176.572 98.4357C175.566 99.2591 174.054 98.9192 173.497 97.7446L159.653 68.5336C158.866 66.8727 159.312 64.8892 160.734 63.725L172.034 54.4752C173.374 53.3782 175.268 53.2682 176.726 54.2025L202.89 70.968Z" fill="#009FD9"/>
<path d="M200.041 75.5251L176.164 93.9839L165.827 73.8C165.405 72.977 165.593 71.9612 166.368 71.4564C177.652 64.103 206.044 70.2331 200.041 75.5251Z" fill="#008CD1"/>
<path d="M164.01 70.0793C163.539 70.4932 162.803 70.3411 162.534 69.7743C161.754 68.1281 162.196 66.1621 163.605 65.0081L173.281 57.0877C174.47 56.1148 176.149 56.0171 177.443 56.8458C177.916 57.149 177.967 57.8209 177.544 58.1918L164.01 70.0793Z" fill="#4DC3EA"/>
<path d="M148.306 150.67L173.037 106.318C174.357 103.95 176.114 101.853 178.214 100.137L201.8 80.8723L148.306 150.67Z" fill="#008CD1"/>
<path d="M130.812 150.67L106.081 106.318C104.761 103.95 103.004 101.853 100.904 100.137L77.3182 80.8723L130.812 150.67Z" fill="#009FD9"/>
<g opacity="0.15">
<path d="M190.497 78.9145C182.362 95.6227 162.192 102.584 145.484 94.4496C128.776 86.3153 121.814 66.1451 129.949 49.4369C138.083 32.7286 158.253 25.7673 174.961 33.9017C191.67 42.036 198.631 62.2062 190.497 78.9145Z" fill="url(#paint6_radial_11658_34388)"/>
</g>
<path d="M168.929 67.4419C169.655 68.0355 169.086 69.2036 168.171 68.9981L160.935 67.3696C160.607 67.2957 160.264 67.4139 160.051 67.6747L155.36 73.4204C154.766 74.1466 153.598 73.5779 153.804 72.6628L155.433 65.4261C155.507 65.0976 155.388 64.7552 155.128 64.5422L149.382 59.8507C148.656 59.2572 149.224 58.089 150.139 58.2945L157.376 59.9235C157.705 59.9975 158.047 59.8793 158.26 59.6185L162.951 53.8737C163.545 53.1476 164.713 53.7163 164.507 54.6314L162.879 61.8671C162.805 62.1955 162.923 62.538 163.184 62.7509L168.929 67.4419Z" fill="white" fill-opacity="0.99"/>
<g opacity="0.15">
<path d="M115.407 122.845C105.683 126.757 94.6118 122.039 90.6992 112.316C86.7865 102.592 91.5044 91.5209 101.228 87.6083C110.951 83.6956 122.023 88.4135 125.935 98.137C129.848 107.86 125.13 118.932 115.407 122.845Z" fill="url(#paint7_radial_11658_34388)"/>
</g>
<path d="M110.724 109.887C110.803 110.41 110.124 110.683 109.819 110.251L107.408 106.833C107.298 106.678 107.11 106.598 106.922 106.626L102.786 107.255C102.263 107.334 101.99 106.655 102.422 106.35L105.841 103.938C105.996 103.829 106.076 103.641 106.048 103.453L105.419 99.3169C105.339 98.7939 106.019 98.5204 106.324 98.9525L108.735 102.372C108.845 102.527 109.033 102.607 109.221 102.578L113.356 101.95C113.879 101.87 114.153 102.55 113.721 102.855L110.302 105.266C110.147 105.376 110.067 105.564 110.095 105.751L110.724 109.887Z" fill="white" fill-opacity="0.99"/>
<path opacity="0.5" d="M109.54 97.5919L119.692 75.5061C120.345 74.0863 121.757 73.1561 123.313 73.2992C144.486 75.2462 180.555 99.7185 165.064 99.7185H110.903C109.81 99.7185 109.084 98.5857 109.54 97.5919Z" fill="#009FD9"/>
<path d="M114.752 65.9593L105.04 57.6442C104.498 57.1808 103.692 57.1745 103.378 57.8144C100.483 63.7222 105.216 87.5703 109.232 79.8058L115.124 67.7579C115.425 67.1436 115.272 66.404 114.752 65.9593Z" fill="white"/>
<path d="M0.527658 128.888C-0.579753 125.827 0.118103 122.943 2.04185 120.794C3.746 118.893 5.38592 117.265 5.38592 117.265L40.28 114.241C44.5909 113.819 49.3797 116.776 51.2105 120.885L63.7776 151.779C63.7776 151.779 63.0902 152.525 60.8474 154.925C60.2285 155.584 59.4931 156.131 58.6253 156.526L29.732 169.755C23.1416 172.777 15.4106 170.032 13.0575 163.515L0.527658 128.888Z" fill="#5E53D9"/>
<path d="M3.2807 125.961C1.20434 120.206 5.52255 115.026 12.3773 114.347L43.0188 111.329C47.3297 110.908 52.1194 113.864 53.9501 117.973L64.7828 142.204C66.781 146.693 65.3807 151.777 61.3784 153.6L32.4851 166.828C25.8947 169.85 18.1637 167.105 15.8105 160.588L3.2807 125.961Z" fill="#7A66F4"/>
<path d="M3.28085 125.961C1.2045 120.206 15.8881 155.66 17.8449 160.116C19.8018 164.571 25.0244 166.076 31.4383 163.884C37.8522 161.693 55.9013 153.755 61.3074 151.084C66.7135 148.414 64.7829 142.204 64.7829 142.204C66.7811 146.693 65.3808 151.777 61.3786 153.6L32.4852 166.828C25.8948 169.85 18.1638 167.105 15.8107 160.588L3.28085 125.961Z" fill="#9881F2"/>
<path d="M56.9298 146.305C55.6291 146.896 54.6314 147.299 54.157 145.241L53.0946 140.595L49.823 133.026L50.8363 129.469L55.3285 139.761L57.9788 143.602C59.1213 145.264 58.1258 145.762 56.9387 146.302L56.9275 146.307L56.9298 146.305ZM29.5737 147.348L26.4825 139.36C25.5649 136.991 29.723 134.396 36.4712 132.741C42.5558 131.251 46.5223 131.58 47.3486 133.515L50.1303 140.021C46.1727 146.422 45.6292 147.904 43.1482 148.943C40.5424 150.035 38.9656 149.352 29.576 147.345L29.5737 147.348ZM22.9725 140.584L17.8011 138.622C13.8345 137.018 13.4759 135.595 16.398 133.07L28.5203 122.327C30.6183 120.521 32.3376 120.303 35.4044 121.366L48.9833 126.242C51.4376 127.091 51.9632 128.094 51.0546 130.132L49.8341 133.008C48.3018 129.462 43.1059 128.19 35.4066 129.858C26.5292 131.78 21.2286 135.993 22.9747 140.584L22.9725 140.584Z" fill="white"/>
<path d="M277.472 128.888C278.58 125.827 277.882 122.943 275.958 120.794C274.254 118.893 272.614 117.265 272.614 117.265L237.72 114.241C233.409 113.819 228.62 116.776 226.79 120.885L214.222 151.779C214.222 151.779 214.91 152.525 217.153 154.925C217.771 155.584 218.507 156.131 219.375 156.526L248.268 169.755C254.858 172.777 262.589 170.032 264.942 163.515L277.472 128.888Z" fill="#DC501D"/>
<path d="M274.719 125.961C276.796 120.206 272.477 115.026 265.623 114.347L234.981 111.329C230.67 110.908 225.881 113.864 224.05 117.973L213.217 142.204C211.219 146.693 212.619 151.777 216.622 153.6L245.515 166.828C252.105 169.85 259.836 167.105 262.189 160.588L274.719 125.961Z" fill="#FA742C"/>
<path d="M274.719 125.961C276.796 120.206 262.112 155.66 260.155 160.116C258.198 164.571 252.976 166.076 246.562 163.884C240.148 161.693 222.099 153.755 216.693 151.084C211.286 148.414 213.217 142.204 213.217 142.204C211.219 146.693 212.619 151.777 216.621 153.6L245.515 166.828C252.105 169.85 259.836 167.105 262.189 160.588L274.719 125.961Z" fill="#FFA459"/>
<g clip-path="url(#clip0_11658_34388)">
<path d="M230.431 148.161L225.633 133.716C224.894 131.487 225.458 130.303 227.901 128.815L231.475 126.648C232.177 126.235 232.824 126.036 233.176 126.818C233.549 127.849 232.784 129.568 233.342 130.889C234.119 132.532 236.389 133.042 238.398 131.762C240.364 130.614 241.257 128.417 240.422 126.877C239.748 125.506 237.745 125.418 237.24 124.566C236.811 123.699 237.384 123.215 238.127 122.741L242.009 120.456C244.653 118.901 245.937 119.033 247.238 121.027L249.357 124.314C249.789 124.993 250.303 125.213 251.147 124.809C252.367 124.15 252.7 122.468 254.709 121.291C256.863 120.213 259.3 120.553 260.545 122.093C261.783 123.687 261.124 125.948 258.979 127.307C256.847 128.438 254.808 127.861 253.609 128.599C252.799 129.085 252.706 129.694 253.206 130.415L255.794 134.574C257.556 137.433 257.057 139.005 253.714 140.736L235.822 150.229C232.775 151.805 231.429 151.287 230.406 148.205L230.427 148.159L230.431 148.161Z" fill="white"/>
</g>
<path d="M262.926 72.5561C267.344 66.2717 263.23 55.7654 253.735 49.0897C244.241 42.4139 232.962 42.0966 228.544 48.381L224.005 54.8359C219.586 61.1203 223.701 71.6266 233.195 78.3023C242.69 84.9781 253.968 85.2954 258.387 79.011L262.926 72.5561Z" fill="#5D9948"/>
<path d="M235.086 70.134C228.179 64.1307 226.271 56.8625 226.803 53.5787C226.878 53.1129 226.818 52.9223 226.504 53.3687L225.116 55.3421C221.358 60.6869 224.146 69.2705 231.298 75.5211C235.02 78.7741 238.447 73.056 235.086 70.134Z" fill="#81B64C"/>
<ellipse cx="245.734" cy="60.4691" rx="19.8161" ry="13.1165" transform="rotate(35.1123 245.734 60.4691)" fill="#81B64C"/>
<path d="M257.714 62.9369C258.89 64.0395 259.079 64.0466 258.202 65.2933C257.097 66.8645 256.11 66.6715 255.025 66.5544L251.214 66.1441L250.578 68.3232C250.447 68.7809 250.286 69.1217 250.1 69.3463C249.095 70.9171 246.631 72.0452 245.648 70.2184L242.895 65.0401L237.09 64.2008C235.039 63.8944 235.265 61.138 236.403 59.6609C236.551 59.4101 236.817 59.143 237.204 58.8654L239.039 57.5293L237.366 54.1376C236.888 53.1556 236.452 52.3482 237.557 50.777C238.551 49.364 238.473 49.6833 239.908 50.4172C246.315 53.8366 252.32 58.0567 257.714 62.9369Z" fill="#5D9948"/>
<path d="M238.682 61.7096C236.129 61.3213 235.583 60.3171 237.215 59.1039L241.172 56.2489L238.801 51.5619C237.646 49.3038 238.403 48.8223 240.782 50.3283L245.993 53.6677L250.305 51.5545C252.208 50.6299 253.261 51.37 253.007 53.454L252.477 58.2266L257.448 62.0465C259.67 63.7763 259.487 64.6311 256.957 64.3282L251.689 63.644L250.35 68.3791C249.812 70.3323 248.682 70.1575 247.439 67.9062L244.56 62.6355L238.682 61.7096Z" fill="white"/>
<path d="M44.1667 74.8514C50.0292 69.4523 48.1692 57.8956 40.0124 49.0387C31.8556 40.1818 20.4907 37.3787 14.6282 42.7778L8.60684 48.3234C2.74437 53.7225 4.60434 65.2793 12.7612 74.1361C20.918 82.993 32.2829 85.7961 38.1454 80.397L44.1667 74.8514Z" fill="#109888"/>
<path d="M16.4754 66.2711C10.7942 58.6652 10.4584 50.8767 11.7199 47.6645C11.8988 47.2088 11.8796 47.0023 11.4632 47.3858L9.62235 49.0812C4.63634 53.6732 5.57436 62.9887 11.45 70.8993C14.5078 75.016 19.2406 69.973 16.4754 66.2711Z" fill="#26C2A3"/>
<ellipse cx="29.398" cy="58.815" rx="20.5577" ry="13.6073" transform="rotate(47.3561 29.398 58.815)" fill="#26C2A3"/>
<path d="M32.3677 70.1917L36.3076 72.4604C36.6691 72.6686 38.5053 71.2805 38.511 70.9651L38.536 67.3747C38.5406 67.1224 38.4017 66.7237 37.8957 66.4323L33.5755 64.005C33.4219 63.9717 31.7247 65.3915 31.7161 65.8646L31.6557 69.1762C31.6511 69.4285 32.0424 70.0044 32.3677 70.1917ZM23.1866 64.905L27.1265 67.1737C27.4519 67.361 29.4455 65.8432 29.4501 65.5909L29.1541 62.0238C29.1627 61.5507 28.7668 61.2271 28.4415 61.0398L24.5019 58.7563C24.2497 58.7123 22.6119 60.3672 22.6073 60.6195L22.5469 63.9311C22.5412 64.2465 22.8252 64.6968 23.1866 64.905ZM32.6743 63.3888L36.2528 65.4494C36.6504 65.6783 38.5404 64.3461 38.5473 63.9676L37.4546 53.6166C37.4597 53.3328 37.3203 52.9657 36.8143 52.6743L33.7187 48.6068C33.3211 48.3778 31.8944 50.0644 31.8881 50.4113L32.0702 62.4673C32.065 62.7511 32.349 63.2015 32.6743 63.3888ZM23.5294 58.1229L27.1078 60.1834C27.4331 60.3708 29.3646 58.8704 29.3698 58.5866L28.3457 48.3715C28.3521 48.0246 28.0669 47.6373 27.6693 47.4083L24.6239 43.2997C24.0745 43.59 22.7844 44.8823 22.7793 45.1662L22.8529 57.1597C22.846 57.5382 23.1317 57.8939 23.5294 58.1229Z" fill="#109888"/>
<path d="M34.0486 68.6432L37.9885 70.9119C38.35 71.12 38.6443 71.0027 38.65 70.6873L38.7104 67.3757C38.715 67.1234 38.5761 66.7248 38.0701 66.4334L34.1302 64.1647C33.8049 63.9773 33.4055 63.843 33.3969 64.3161L33.3366 67.6277C33.332 67.88 33.7233 68.4558 34.0486 68.6432ZM24.8675 63.3564L28.8074 65.6251C29.1327 65.8125 29.5366 65.6945 29.5412 65.4422L29.6016 62.1306C29.6102 61.6575 29.2143 61.334 28.889 61.1466L24.9491 58.8779C24.443 58.5865 24.2927 58.8187 24.2881 59.071L24.2278 62.3825C24.222 62.6979 24.506 63.1483 24.8675 63.3564ZM34.3552 61.8403L37.9336 63.9008C38.3312 64.1298 38.6238 64.1071 38.6307 63.7286L39.1354 52.0681C39.1406 51.7842 39.0012 51.4171 38.4951 51.1257L34.266 48.6905C33.8684 48.4615 33.5752 48.5158 33.5689 48.8627L33.751 60.9187C33.7458 61.2026 34.0298 61.6529 34.3552 61.8403ZM25.2102 56.5743L28.7887 58.6349C29.114 58.8222 29.4083 58.7049 29.4135 58.421L30.0266 46.823C30.0329 46.476 29.7478 46.0888 29.3502 45.8598L25.1211 43.4246C24.615 43.1332 24.4653 43.3338 24.4601 43.6176L24.5338 55.6112C24.5269 55.9896 24.8126 56.3454 25.2102 56.5743Z" fill="white"/>
<defs>
<filter id="filter0_f_11658_34388" x="132.931" y="165.718" width="13.0452" height="8.02878" filterUnits="userSpaceOnUse" color-interpolation-filters="sRGB">
<feFlood flood-opacity="0" result="BackgroundImageFix"/>
<feBlend mode="normal" in="SourceGraphic" in2="BackgroundImageFix" result="shape"/>
<feGaussianBlur stdDeviation="1" result="effect1_foregroundBlur_11658_34388"/>
</filter>
<filter id="filter1_f_11658_34388" x="69.5651" y="33.3462" width="139.845" height="129.749" filterUnits="userSpaceOnUse" color-interpolation-filters="sRGB">
<feFlood flood-opacity="0" result="BackgroundImageFix"/>
<feBlend mode="normal" in="SourceGraphic" in2="BackgroundImageFix" result="shape"/>
<feGaussianBlur stdDeviation="1.8" result="effect1_foregroundBlur_11658_34388"/>
</filter>
<filter id="filter2_f_11658_34388" x="71.9951" y="146.884" width="134.873" height="59.458" filterUnits="userSpaceOnUse" color-interpolation-filters="sRGB">
<feFlood flood-opacity="0" result="BackgroundImageFix"/>
<feBlend mode="normal" in="SourceGraphic" in2="BackgroundImageFix" result="shape"/>
<feGaussianBlur stdDeviation="2" result="effect1_foregroundBlur_11658_34388"/>
</filter>
<radialGradient id="paint0_radial_11658_34388" cx="0" cy="0" r="1" gradientUnits="userSpaceOnUse" gradientTransform="translate(138.801 87.9667) rotate(180) scale(85.5893)">
<stop stop-color="#008CD1"/>
<stop offset="0.5" stop-color="#008CD1" stop-opacity="0.5"/>
<stop offset="1" stop-color="#008CD1" stop-opacity="0"/>
</radialGradient>
<radialGradient id="paint1_radial_11658_34388" cx="0" cy="0" r="1" gradientUnits="userSpaceOnUse" gradientTransform="translate(139.432 170.029) rotate(90) scale(32.3128 65.689)">
<stop stop-color="#008CD1"/>
<stop offset="1" stop-color="#008CD1" stop-opacity="0"/>
</radialGradient>
<radialGradient id="paint2_radial_11658_34388" cx="0" cy="0" r="1" gradientUnits="userSpaceOnUse" gradientTransform="translate(139.432 170.029) rotate(90) scale(32.3128 65.689)">
<stop stop-color="#008CD1"/>
<stop offset="1" stop-color="#008CD1" stop-opacity="0"/>
</radialGradient>
<radialGradient id="paint3_radial_11658_34388" cx="0" cy="0" r="1" gradientUnits="userSpaceOnUse" gradientTransform="translate(139.432 170.029) rotate(90) scale(32.3128 65.689)">
<stop stop-color="#008CD1"/>
<stop offset="1" stop-color="#008CD1" stop-opacity="0"/>
</radialGradient>
<radialGradient id="paint4_radial_11658_34388" cx="0" cy="0" r="1" gradientUnits="userSpaceOnUse" gradientTransform="translate(139.432 170.029) rotate(90) scale(32.3128 65.689)">
<stop stop-color="#008CD1"/>
<stop offset="1" stop-color="#008CD1" stop-opacity="0"/>
</radialGradient>
<radialGradient id="paint5_radial_11658_34388" cx="0" cy="0" r="1" gradientUnits="userSpaceOnUse" gradientTransform="translate(139.432 170.029) rotate(90) scale(32.3128 65.689)">
<stop stop-color="#008CD1"/>
<stop offset="1" stop-color="#008CD1" stop-opacity="0"/>
</radialGradient>
<radialGradient id="paint6_radial_11658_34388" cx="0" cy="0" r="1" gradientUnits="userSpaceOnUse" gradientTransform="translate(159.125 63.7604) rotate(115.959) scale(32.675)">
<stop stop-color="white"/>
<stop offset="0.5" stop-color="white" stop-opacity="0.5"/>
<stop offset="1" stop-color="white" stop-opacity="0"/>
</radialGradient>
<radialGradient id="paint7_radial_11658_34388" cx="0" cy="0" r="1" gradientUnits="userSpaceOnUse" gradientTransform="translate(108.015 104.638) rotate(158.08) scale(18.4292 18.4292)">
<stop stop-color="white"/>
<stop offset="0.5" stop-color="white" stop-opacity="0.5"/>
<stop offset="1" stop-color="white" stop-opacity="0"/>
</radialGradient>
<clipPath id="clip0_11658_34388">
<rect width="35.8365" height="31.7016" fill="white" transform="translate(225.331 119.399)"/>
</clipPath>
</defs>
</svg>
